<svg xmlns="http://www.w3.org/2000/svg" xmlns:xlink="http://www.w3.org/1999/xlink" xmlns:svgjs="http://svgjs.com/svgjs" class="animated" id="freepik_stories-karaoke" version="1.1" viewBox="54.17 42.33 654.3 390.73"><style>svg#freepik_stories-karaoke:not(.animated) .animable {opacity: 0;}svg#freepik_stories-karaoke.animated #freepik--Speakers--inject-95 {animation: 6s Infinite  linear heartbeat;animation-delay: 0s;}svg#freepik_stories-karaoke.animated #freepik--musical-notes--inject-95 {animation: 3s Infinite  linear heartbeat;animation-delay: 2s;}svg#freepik_stories-karaoke.animated #freepik--character-2--inject-95 {animation: 6s Infinite  linear shake;animation-delay: 1s;}svg#freepik_stories-karaoke.animated #freepik--character-1--inject-95 {animation: 6s Infinite  linear shake;animation-delay: 0s;}            @keyframes heartbeat {                0% {                    transform: scale(1);                }                10% {                    transform: scale(1.1);                }                30% {                    transform: scale(1);                }                40% {                    transform: scale(1);                }                50% {                    transform: scale(1.1);                }                60% {                    transform: scale(1);                }                100% {                    transform: scale(1);                }            }                    @keyframes shake {                10%, 90% {                    transform: translate3d(-1px, 0, 0);                  }                  20%, 80% {                    transform: translate3d(2px, 0, 0);                  }                  30%, 50%, 70% {                    transform: translate3d(-4px, 0, 0);                  }                  40%, 60% {                    transform: translate3d(4px, 0, 0);                  }            }        </style><g id="freepik--Wall--inject-95" class="animable" style="transform-origin: 386.615px 155.895px;"><g id="ele563m7g1i89"><g style="opacity: 0.2; transform-origin: 386.615px 155.895px;" class="animable" id="elgux0vml684s"><polygon points="129.65 63.31 105.88 63.31 94 83.89 105.88 104.48 129.65 104.48 141.53 83.89 129.65 63.31" style="fill: none; stroke: rgb(0, 0, 0); stroke-linecap: round; stroke-linejoin: round; transform-origin: 117.765px 83.895px;" id="elijp511qir6" class="animable"/><polygon points="165.42 42.83 141.65 42.83 129.77 63.42 141.65 84 165.42 84 177.3 63.42 165.42 42.83" style="fill: none; stroke: rgb(0, 0, 0); stroke-linecap: round; stroke-linejoin: round; transform-origin: 153.535px 63.415px;" id="eli9v0htexpq" class="animable"/><polygon points="129.65 104.43 105.88 104.43 94 125.01 105.88 145.6 129.65 145.6 141.53 125.01 129.65 104.43" style="fill: none; stroke: rgb(0, 0, 0); stroke-linecap: round; stroke-linejoin: round; transform-origin: 117.765px 125.015px;" id="elgn3mtaiw8i8" class="animable"/><polygon points="165.42 83.95 141.65 83.95 129.77 104.54 141.65 125.12 165.42 125.12 177.3 104.54 165.42 83.95" style="fill: none; stroke: rgb(0, 0, 0); stroke-linecap: round; stroke-linejoin: round; transform-origin: 153.535px 104.535px;" id="elnaluh9gfiuj" class="animable"/><polygon points="129.65 145.55 105.88 145.55 94 166.13 105.88 186.72 129.65 186.72 141.53 166.13 129.65 145.55" style="fill: none; stroke: rgb(0, 0, 0); stroke-linecap: round; stroke-linejoin: round; transform-origin: 117.765px 166.135px;" id="eluzzsaitvym" class="animable"/><polygon points="165.42 125.07 141.65 125.07 129.77 145.66 141.65 166.24 165.42 166.24 177.3 145.66 165.42 125.07" style="fill: none; stroke: rgb(0, 0, 0); stroke-linecap: round; stroke-linejoin: round; transform-origin: 153.535px 145.655px;" id="elgad23zpvu3" class="animable"/><polygon points="129.65 186.67 105.88 186.67 94 207.25 105.88 227.84 129.65 227.84 141.53 207.25 129.65 186.67" style="fill: none; stroke: rgb(0, 0, 0); stroke-linecap: round; stroke-linejoin: round; transform-origin: 117.765px 207.255px;" id="elaf0i5bw4ubt" class="animable"/><polygon points="165.42 166.19 141.65 166.19 129.77 186.78 141.65 207.36 165.42 207.36 177.3 186.78 165.42 166.19" style="fill: none; stroke: rgb(0, 0, 0); stroke-linecap: round; stroke-linejoin: round; transform-origin: 153.535px 186.775px;" id="elldtdse1627" class="animable"/><polygon points="129.65 227.79 105.88 227.79 94 248.37 105.88 268.96 129.65 268.96 141.53 248.37 129.65 227.79" style="fill: none; stroke: rgb(0, 0, 0); stroke-linecap: round; stroke-linejoin: round; transform-origin: 117.765px 248.375px;" id="elze83sxji52q" class="animable"/><polygon points="165.42 207.31 141.65 207.31 129.77 227.9 141.65 248.48 165.42 248.48 177.3 227.9 165.42 207.31" style="fill: none; stroke: rgb(0, 0, 0); stroke-linecap: round; stroke-linejoin: round; transform-origin: 153.535px 227.895px;" id="elj1e7u8pfgz" class="animable"/><polygon points="201.35 63.31 177.59 63.31 165.7 83.89 177.59 104.48 201.35 104.48 213.24 83.89 201.35 63.31" style="fill: none; stroke: rgb(0, 0, 0); stroke-linecap: round; stroke-linejoin: round; transform-origin: 189.47px 83.895px;" id="el5vk2b0dpkxt" class="animable"/><polygon points="237.12 42.83 213.35 42.83 201.47 63.42 213.35 84 237.12 84 249.01 63.42 237.12 42.83" style="fill: none; stroke: rgb(0, 0, 0); stroke-linecap: round; stroke-linejoin: round; transform-origin: 225.24px 63.415px;" id="elo8914dvtp8a" class="animable"/><polygon points="201.35 104.43 177.59 104.43 165.7 125.01 177.59 145.6 201.35 145.6 213.24 125.01 201.35 104.43" style="fill: none; stroke: rgb(0, 0, 0); stroke-linecap: round; stroke-linejoin: round; transform-origin: 189.47px 125.015px;" id="elt8ha01046v9" class="animable"/><polygon points="237.12 83.95 213.35 83.95 201.47 104.54 213.35 125.12 237.12 125.12 249.01 104.54 237.12 83.95" style="fill: none; stroke: rgb(0, 0, 0); stroke-linecap: round; stroke-linejoin: round; transform-origin: 225.24px 104.535px;" id="elnsh6ameu22q" class="animable"/><polygon points="201.35 145.55 177.59 145.55 165.7 166.13 177.59 186.72 201.35 186.72 213.24 166.13 201.35 145.55" style="fill: none; stroke: rgb(0, 0, 0); stroke-linecap: round; stroke-linejoin: round; transform-origin: 189.47px 166.135px;" id="ela91hvhi9j0o" class="animable"/><polygon points="237.12 125.07 213.35 125.07 201.47 145.66 213.35 166.24 237.12 166.24 249.01 145.66 237.12 125.07" style="fill: none; stroke: rgb(0, 0, 0); stroke-linecap: round; stroke-linejoin: round; transform-origin: 225.24px 145.655px;" id="elxzwy1l3zh4" class="animable"/><polygon points="201.35 186.67 177.59 186.67 165.7 207.25 177.59 227.84 201.35 227.84 213.24 207.25 201.35 186.67" style="fill: none; stroke: rgb(0, 0, 0); stroke-linecap: round; stroke-linejoin: round; transform-origin: 189.47px 207.255px;" id="elirhbm7sxmbc" class="animable"/><polygon points="237.12 166.19 213.35 166.19 201.47 186.78 213.35 207.36 237.12 207.36 249.01 186.78 237.12 166.19" style="fill: none; stroke: rgb(0, 0, 0); stroke-linecap: round; stroke-linejoin: round; transform-origin: 225.24px 186.775px;" id="eltg3lb2gt8hq" class="animable"/><polygon points="201.35 227.79 177.59 227.79 165.7 248.37 177.59 268.96 201.35 268.96 213.24 248.37 201.35 227.79" style="fill: none; stroke: rgb(0, 0, 0); stroke-linecap: round; stroke-linejoin: round; transform-origin: 189.47px 248.375px;" id="el57ka1z6fvl5" class="animable"/><polygon points="237.12 207.31 213.35 207.31 201.47 227.9 213.35 248.48 237.12 248.48 249.01 227.9 237.12 207.31" style="fill: none; stroke: rgb(0, 0, 0); stroke-linecap: round; stroke-linejoin: round; transform-origin: 225.24px 227.895px;" id="el7f7f4sq2s8y" class="animable"/><polygon points="273.06 63.31 249.29 63.31 237.41 83.89 249.29 104.48 273.06 104.48 284.94 83.89 273.06 63.31" style="fill: none; stroke: rgb(0, 0, 0); stroke-linecap: round; stroke-linejoin: round; transform-origin: 261.175px 83.895px;" id="elft9osjz1qic" class="animable"/><polygon points="308.83 42.83 285.06 42.83 273.17 63.42 285.06 84 308.83 84 320.71 63.42 308.83 42.83" style="fill: none; stroke: rgb(0, 0, 0); stroke-linecap: round; stroke-linejoin: round; transform-origin: 296.94px 63.415px;" id="elx3igt09ktc" class="animable"/><polygon points="273.06 104.43 249.29 104.43 237.41 125.01 249.29 145.6 273.06 145.6 284.94 125.01 273.06 104.43" style="fill: none; stroke: rgb(0, 0, 0); stroke-linecap: round; stroke-linejoin: round; transform-origin: 261.175px 125.015px;" id="elur1g1jzzwhl" class="animable"/><polygon points="308.83 83.95 285.06 83.95 273.17 104.54 285.06 125.12 308.83 125.12 320.71 104.54 308.83 83.95" style="fill: none; stroke: rgb(0, 0, 0); stroke-linecap: round; stroke-linejoin: round; transform-origin: 296.94px 104.535px;" id="eln9zn8a211wg" class="animable"/><polygon points="273.06 145.55 249.29 145.55 237.41 166.13 249.29 186.72 273.06 186.72 284.94 166.13 273.06 145.55" style="fill: none; stroke: rgb(0, 0, 0); stroke-linecap: round; stroke-linejoin: round; transform-origin: 261.175px 166.135px;" id="eloejprgcegjo" class="animable"/><polygon points="308.83 125.07 285.06 125.07 273.17 145.66 285.06 166.24 308.83 166.24 320.71 145.66 308.83 125.07" style="fill: none; stroke: rgb(0, 0, 0); stroke-linecap: round; stroke-linejoin: round; transform-origin: 296.94px 145.655px;" id="elfbwxff2goz" class="animable"/><polygon points="273.06 186.67 249.29 186.67 237.41 207.25 249.29 227.84 273.06 227.84 284.94 207.25 273.06 186.67" style="fill: none; stroke: rgb(0, 0, 0); stroke-linecap: round; stroke-linejoin: round; transform-origin: 261.175px 207.255px;" id="elf5rzb87ph8w" class="animable"/><polygon points="308.83 166.19 285.06 166.19 273.17 186.78 285.06 207.36 308.83 207.36 320.71 186.78 308.83 166.19" style="fill: none; stroke: rgb(0, 0, 0); stroke-linecap: round; stroke-linejoin: round; transform-origin: 296.94px 186.775px;" id="elyturl07g0x" class="animable"/><polygon points="273.06 227.79 249.29 227.79 237.41 248.37 249.29 268.96 273.06 268.96 284.94 248.37 273.06 227.79" style="fill: none; stroke: rgb(0, 0, 0); stroke-linecap: round; stroke-linejoin: round; transform-origin: 261.175px 248.375px;" id="eluzkqx41eylf" class="animable"/><polygon points="308.83 207.31 285.06 207.31 273.17 227.9 285.06 248.48 308.83 248.48 320.71 227.9 308.83 207.31" style="fill: none; stroke: rgb(0, 0, 0); stroke-linecap: round; stroke-linejoin: round; transform-origin: 296.94px 227.895px;" id="elyhbg8s4rkbj" class="animable"/><polygon points="344.76 63.31 320.99 63.31 309.11 83.89 320.99 104.48 344.76 104.48 356.65 83.89 344.76 63.31" style="fill: none; stroke: rgb(0, 0, 0); stroke-linecap: round; stroke-linejoin: round; transform-origin: 332.88px 83.895px;" id="el0f2f9avul0jp" class="animable"/><polygon points="380.53 42.83 356.76 42.83 344.88 63.42 356.76 84 380.53 84 392.42 63.42 380.53 42.83" style="fill: none; stroke: rgb(0, 0, 0); stroke-linecap: round; stroke-linejoin: round; transform-origin: 368.65px 63.415px;" id="elqckmeyqulv" class="animable"/><polygon points="344.76 104.43 320.99 104.43 309.11 125.01 320.99 145.6 344.76 145.6 356.65 125.01 344.76 104.43" style="fill: none; stroke: rgb(0, 0, 0); stroke-linecap: round; stroke-linejoin: round; transform-origin: 332.88px 125.015px;" id="el0wxfok78x1de" class="animable"/><polygon points="380.53 83.95 356.76 83.95 344.88 104.54 356.76 125.12 380.53 125.12 392.42 104.54 380.53 83.95" style="fill: none; stroke: rgb(0, 0, 0); stroke-linecap: round; stroke-linejoin: round; transform-origin: 368.65px 104.535px;" id="elujbizifhl7s" class="animable"/><polygon points="344.76 145.55 320.99 145.55 309.11 166.13 320.99 186.72 344.76 186.72 356.65 166.13 344.76 145.55" style="fill: none; stroke: rgb(0, 0, 0); stroke-linecap: round; stroke-linejoin: round; transform-origin: 332.88px 166.135px;" id="elyb6549qdkmj" class="animable"/><polygon points="380.53 125.07 356.76 125.07 344.88 145.66 356.76 166.24 380.53 166.24 392.42 145.66 380.53 125.07" style="fill: none; stroke: rgb(0, 0, 0); stroke-linecap: round; stroke-linejoin: round; transform-origin: 368.65px 145.655px;" id="eliz9nabk3gg" class="animable"/><polygon points="344.76 186.67 320.99 186.67 309.11 207.25 320.99 227.84 344.76 227.84 356.65 207.25 344.76 186.67" style="fill: none; stroke: rgb(0, 0, 0); stroke-linecap: round; stroke-linejoin: round; transform-origin: 332.88px 207.255px;" id="eluv297hqo0s9" class="animable"/><polygon points="380.53 166.19 356.76 166.19 344.88 186.78 356.76 207.36 380.53 207.36 392.42 186.78 380.53 166.19" style="fill: none; stroke: rgb(0, 0, 0); stroke-linecap: round; stroke-linejoin: round; transform-origin: 368.65px 186.775px;" id="el3t7376wit18" class="animable"/><polygon points="344.76 227.79 320.99 227.79 309.11 248.37 320.99 268.96 344.76 268.96 356.65 248.37 344.76 227.79" style="fill: none; stroke: rgb(0, 0, 0); stroke-linecap: round; stroke-linejoin: round; transform-origin: 332.88px 248.375px;" id="elmn3dbkqcor" class="animable"/><polygon points="380.53 207.31 356.76 207.31 344.88 227.9 356.76 248.48 380.53 248.48 392.42 227.9 380.53 207.31" style="fill: none; stroke: rgb(0, 0, 0); stroke-linecap: round; stroke-linejoin: round; transform-origin: 368.65px 227.895px;" id="elyxkt37u5ge" class="animable"/><polygon points="416.47 63.31 392.7 63.31 380.81 83.89 392.7 104.48 416.47 104.48 428.35 83.89 416.47 63.31" style="fill: none; stroke: rgb(0, 0, 0); stroke-linecap: round; stroke-linejoin: round; transform-origin: 404.58px 83.895px;" id="elmfult9metxa" class="animable"/><polygon points="452.24 42.83 428.47 42.83 416.58 63.42 428.47 84 452.24 84 464.12 63.42 452.24 42.83" style="fill: none; stroke: rgb(0, 0, 0); stroke-linecap: round; stroke-linejoin: round; transform-origin: 440.35px 63.415px;" id="elq2l2j3raxd" class="animable"/><polygon points="416.47 104.43 392.7 104.43 380.81 125.01 392.7 145.6 416.47 145.6 428.35 125.01 416.47 104.43" style="fill: none; stroke: rgb(0, 0, 0); stroke-linecap: round; stroke-linejoin: round; transform-origin: 404.58px 125.015px;" id="elluv2xfjn5lb" class="animable"/><polygon points="452.24 83.95 428.47 83.95 416.58 104.54 428.47 125.12 452.24 125.12 464.12 104.54 452.24 83.95" style="fill: none; stroke: rgb(0, 0, 0); stroke-linecap: round; stroke-linejoin: round; transform-origin: 440.35px 104.535px;" id="eli279cf8xiue" class="animable"/><polygon points="416.47 145.55 392.7 145.55 380.81 166.13 392.7 186.72 416.47 186.72 428.35 166.13 416.47 145.55" style="fill: none; stroke: rgb(0, 0, 0); stroke-linecap: round; stroke-linejoin: round; transform-origin: 404.58px 166.135px;" id="el7pu2k01xxrs" class="animable"/><polygon points="452.24 125.07 428.47 125.07 416.58 145.66 428.47 166.24 452.24 166.24 464.12 145.66 452.24 125.07" style="fill: none; stroke: rgb(0, 0, 0); stroke-linecap: round; stroke-linejoin: round; transform-origin: 440.35px 145.655px;" id="elbzsabxjglo" class="animable"/><polygon points="416.47 186.67 392.7 186.67 380.81 207.25 392.7 227.84 416.47 227.84 428.35 207.25 416.47 186.67" style="fill: none; stroke: rgb(0, 0, 0); stroke-linecap: round; stroke-linejoin: round; transform-origin: 404.58px 207.255px;" id="el0solluljrvy" class="animable"/><polygon points="452.24 166.19 428.47 166.19 416.58 186.78 428.47 207.36 452.24 207.36 464.12 186.78 452.24 166.19" style="fill: none; stroke: rgb(0, 0, 0); stroke-linecap: round; stroke-linejoin: round; transform-origin: 440.35px 186.775px;" id="elhqs85ychotu" class="animable"/><polygon points="416.47 227.79 392.7 227.79 380.81 248.37 392.7 268.96 416.47 268.96 428.35 248.37 416.47 227.79" style="fill: none; stroke: rgb(0, 0, 0); stroke-linecap: round; stroke-linejoin: round; transform-origin: 404.58px 248.375px;" id="el85zszoygmvo" class="animable"/><polygon points="452.24 207.31 428.47 207.31 416.58 227.9 428.47 248.48 452.24 248.48 464.12 227.9 452.24 207.31" style="fill: none; stroke: rgb(0, 0, 0); stroke-linecap: round; stroke-linejoin: round; transform-origin: 440.35px 227.895px;" id="elom35eibs93" class="animable"/><polygon points="488.17 63.31 464.4 63.31 452.52 83.89 464.4 104.48 488.17 104.48 500.05 83.89 488.17 63.31" style="fill: none; stroke: rgb(0, 0, 0); stroke-linecap: round; stroke-linejoin: round; transform-origin: 476.285px 83.895px;" id="eluzce6r6zsnf" class="animable"/><polygon points="523.94 42.83 500.17 42.83 488.29 63.42 500.17 84 523.94 84 535.82 63.42 523.94 42.83" style="fill: none; stroke: rgb(0, 0, 0); stroke-linecap: round; stroke-linejoin: round; transform-origin: 512.055px 63.415px;" id="elrzjdos07gj" class="animable"/><polygon points="488.17 104.43 464.4 104.43 452.52 125.01 464.4 145.6 488.17 145.6 500.05 125.01 488.17 104.43" style="fill: none; stroke: rgb(0, 0, 0); stroke-linecap: round; stroke-linejoin: round; transform-origin: 476.285px 125.015px;" id="ely6d3n0oer7s" class="animable"/><polygon points="523.94 83.95 500.17 83.95 488.29 104.54 500.17 125.12 523.94 125.12 535.82 104.54 523.94 83.95" style="fill: none; stroke: rgb(0, 0, 0); stroke-linecap: round; stroke-linejoin: round; transform-origin: 512.055px 104.535px;" id="eljx9qssqd1ke" class="animable"/><polygon points="488.17 145.55 464.4 145.55 452.52 166.13 464.4 186.72 488.17 186.72 500.05 166.13 488.17 145.55" style="fill: none; stroke: rgb(0, 0, 0); stroke-linecap: round; stroke-linejoin: round; transform-origin: 476.285px 166.135px;" id="el73juludtntb" class="animable"/><polygon points="523.94 125.07 500.17 125.07 488.29 145.66 500.17 166.24 523.94 166.24 535.82 145.66 523.94 125.07" style="fill: none; stroke: rgb(0, 0, 0); stroke-linecap: round; stroke-linejoin: round; transform-origin: 512.055px 145.655px;" id="el9e2n63cnqt" class="animable"/><polygon points="488.17 186.67 464.4 186.67 452.52 207.25 464.4 227.84 488.17 227.84 500.05 207.25 488.17 186.67" style="fill: none; stroke: rgb(0, 0, 0); stroke-linecap: round; stroke-linejoin: round; transform-origin: 476.285px 207.255px;" id="elka7s5ieye1" class="animable"/><polygon points="523.94 166.19 500.17 166.19 488.29 186.78 500.17 207.36 523.94 207.36 535.82 186.78 523.94 166.19" style="fill: none; stroke: rgb(0, 0, 0); stroke-linecap: round; stroke-linejoin: round; transform-origin: 512.055px 186.775px;" id="elcza7r4gdwfe" class="animable"/><polygon points="488.17 227.79 464.4 227.79 452.52 248.37 464.4 268.96 488.17 268.96 500.05 248.37 488.17 227.79" style="fill: none; stroke: rgb(0, 0, 0); stroke-linecap: round; stroke-linejoin: round; transform-origin: 476.285px 248.375px;" id="elf2rpb8rixou" class="animable"/><polygon points="523.94 207.31 500.17 207.31 488.29 227.9 500.17 248.48 523.94 248.48 535.82 227.9 523.94 207.31" style="fill: none; stroke: rgb(0, 0, 0); stroke-linecap: round; stroke-linejoin: round; transform-origin: 512.055px 227.895px;" id="elt5l9lz6bn0m" class="animable"/><polygon points="559.87 63.31 536.11 63.31 524.22 83.89 536.11 104.48 559.87 104.48 571.76 83.89 559.87 63.31" style="fill: none; stroke: rgb(0, 0, 0); stroke-linecap: round; stroke-linejoin: round; transform-origin: 547.99px 83.895px;" id="elb3bhogjh8eg" class="animable"/><polygon points="595.64 42.83 571.88 42.83 559.99 63.42 571.88 84 595.64 84 607.53 63.42 595.64 42.83" style="fill: none; stroke: rgb(0, 0, 0); stroke-linecap: round; stroke-linejoin: round; transform-origin: 583.76px 63.415px;" id="el33ujt6rgvk" class="animable"/><polygon points="559.87 104.43 536.11 104.43 524.22 125.01 536.11 145.6 559.87 145.6 571.76 125.01 559.87 104.43" style="fill: none; stroke: rgb(0, 0, 0); stroke-linecap: round; stroke-linejoin: round; transform-origin: 547.99px 125.015px;" id="elya5fq6oqh1" class="animable"/><polygon points="595.64 83.95 571.88 83.95 559.99 104.54 571.88 125.12 595.64 125.12 607.53 104.54 595.64 83.95" style="fill: none; stroke: rgb(0, 0, 0); stroke-linecap: round; stroke-linejoin: round; transform-origin: 583.76px 104.535px;" id="el60jvav9k0je" class="animable"/><polygon points="559.87 145.55 536.11 145.55 524.22 166.13 536.11 186.72 559.87 186.72 571.76 166.13 559.87 145.55" style="fill: none; stroke: rgb(0, 0, 0); stroke-linecap: round; stroke-linejoin: round; transform-origin: 547.99px 166.135px;" id="el1386wwk5uk9" class="animable"/><polygon points="595.64 125.07 571.88 125.07 559.99 145.66 571.88 166.24 595.64 166.24 607.53 145.66 595.64 125.07" style="fill: none; stroke: rgb(0, 0, 0); stroke-linecap: round; stroke-linejoin: round; transform-origin: 583.76px 145.655px;" id="elq61yy2mdg6" class="animable"/><polygon points="559.87 186.67 536.11 186.67 524.22 207.25 536.11 227.84 559.87 227.84 571.76 207.25 559.87 186.67" style="fill: none; stroke: rgb(0, 0, 0); stroke-linecap: round; stroke-linejoin: round; transform-origin: 547.99px 207.255px;" id="el41ecuxslzw2" class="animable"/><polygon points="595.64 166.19 571.88 166.19 559.99 186.78 571.88 207.36 595.64 207.36 607.53 186.78 595.64 166.19" style="fill: none; stroke: rgb(0, 0, 0); stroke-linecap: round; stroke-linejoin: round; transform-origin: 583.76px 186.775px;" id="elxfiuvt65ozj" class="animable"/><polygon points="559.87 227.79 536.11 227.79 524.22 248.37 536.11 268.96 559.87 268.96 571.76 248.37 559.87 227.79" style="fill: none; stroke: rgb(0, 0, 0); stroke-linecap: round; stroke-linejoin: round; transform-origin: 547.99px 248.375px;" id="el33smletq776" class="animable"/><polygon points="595.64 207.31 571.88 207.31 559.99 227.9 571.88 248.48 595.64 248.48 607.53 227.9 595.64 207.31" style="fill: none; stroke: rgb(0, 0, 0); stroke-linecap: round; stroke-linejoin: round; transform-origin: 583.76px 227.895px;" id="elllav2wmf6pd" class="animable"/><polygon points="631.58 63.31 607.81 63.31 595.93 83.89 607.81 104.48 631.58 104.48 643.46 83.89 631.58 63.31" style="fill: none; stroke: rgb(0, 0, 0); stroke-linecap: round; stroke-linejoin: round; transform-origin: 619.695px 83.895px;" id="elq5yb4d8p5x" class="animable"/><polygon points="667.35 42.83 643.58 42.83 631.7 63.42 643.58 84 667.35 84 679.23 63.42 667.35 42.83" style="fill: none; stroke: rgb(0, 0, 0); stroke-linecap: round; stroke-linejoin: round; transform-origin: 655.465px 63.415px;" id="el3o6so331309" class="animable"/><polygon points="631.58 104.43 607.81 104.43 595.93 125.01 607.81 145.6 631.58 145.6 643.46 125.01 631.58 104.43" style="fill: none; stroke: rgb(0, 0, 0); stroke-linecap: round; stroke-linejoin: round; transform-origin: 619.695px 125.015px;" id="el9v3tncn2tjn" class="animable"/><polygon points="667.35 83.95 643.58 83.95 631.7 104.54 643.58 125.12 667.35 125.12 679.23 104.54 667.35 83.95" style="fill: none; stroke: rgb(0, 0, 0); stroke-linecap: round; stroke-linejoin: round; transform-origin: 655.465px 104.535px;" id="el7aw2ynvgwz" class="animable"/><polygon points="631.58 145.55 607.81 145.55 595.93 166.13 607.81 186.72 631.58 186.72 643.46 166.13 631.58 145.55" style="fill: none; stroke: rgb(0, 0, 0); stroke-linecap: round; stroke-linejoin: round; transform-origin: 619.695px 166.135px;" id="el17dcw7g5khm" class="animable"/><polygon points="667.35 125.07 643.58 125.07 631.7 145.66 643.58 166.24 667.35 166.24 679.23 145.66 667.35 125.07" style="fill: none; stroke: rgb(0, 0, 0); stroke-linecap: round; stroke-linejoin: round; transform-origin: 655.465px 145.655px;" id="elyj2bvmv31x" class="animable"/><polygon points="631.58 186.67 607.81 186.67 595.93 207.25 607.81 227.84 631.58 227.84 643.46 207.25 631.58 186.67" style="fill: none; stroke: rgb(0, 0, 0); stroke-linecap: round; stroke-linejoin: round; transform-origin: 619.695px 207.255px;" id="elaucfru6bhnv" class="animable"/><polygon points="667.35 166.19 643.58 166.19 631.7 186.78 643.58 207.36 667.35 207.36 679.23 186.78 667.35 166.19" style="fill: none; stroke: rgb(0, 0, 0); stroke-linecap: round; stroke-linejoin: round; transform-origin: 655.465px 186.775px;" id="elwi1qd7x2g" class="animable"/><polygon points="631.58 227.79 607.81 227.79 595.93 248.37 607.81 268.96 631.58 268.96 643.46 248.37 631.58 227.79" style="fill: none; stroke: rgb(0, 0, 0); stroke-linecap: round; stroke-linejoin: round; transform-origin: 619.695px 248.375px;" id="elpkpdg125qds" class="animable"/><polygon points="667.35 207.31 643.58 207.31 631.7 227.9 643.58 248.48 667.35 248.48 679.23 227.9 667.35 207.31" style="fill: none; stroke: rgb(0, 0, 0); stroke-linecap: round; stroke-linejoin: round; transform-origin: 655.465px 227.895px;" id="el5v50boky5gn" class="animable"/></g></g></g><g id="freepik--Floor--inject-95" class="animable" style="transform-origin: 380.635px 352.62px;"><line x1="55.3" y1="352.62" x2="705.97" y2="352.62" style="fill: none; stroke: rgb(38, 50, 56); stroke-linecap: round; stroke-linejoin: round; transform-origin: 380.635px 352.62px;" id="eld9swdat5l5v" class="animable"/></g><g id="freepik--Plants--inject-95" class="animable" style="transform-origin: 381.326px 299.902px;"><path d="M58.4,258.08c2,.87,6.86.76,6.87.76s-1-3.19-1.14-3.39c-1.07-2.23-4.45-5.93-7.21-5.56A3.29,3.29,0,0,0,54.29,254C54.74,255.92,56.7,257.33,58.4,258.08Z" style="fill: rgb(38, 50, 56); transform-origin: 59.7221px 254.354px;" id="elcn1z7avc6eb" class="animable"/><path d="M60.08,272.19c2.07.3,6.42-1,6.76-1.06a58.22,58.22,0,0,0,2.64,7.3c.6,1.39,1.24,2.76,1.91,4.13-.4-.58-.76-1.09-.82-1.16-1.62-1.88-5.85-4.55-8.41-3.46a3.29,3.29,0,0,0-1.46,4.67c.95,1.72,3.21,2.57,5,2.83s5.59-.73,6.57-1l.78,1.57c1.26,2.51,2.53,5,3.7,7.49.41.88.78,1.75,1.16,2.63-.35-.51-.65-.95-.71-1-1.62-1.87-5.86-4.54-8.41-3.46a3.3,3.3,0,0,0-1.46,4.67c.95,1.72,3.21,2.57,5,2.84s5.22-.64,6.39-1c.36.91.73,1.82,1,2.72.2.62.43,1.2.59,1.83s.35,1.24.52,1.85c.28,1.18.58,2.4.83,3.57.18.81.34,1.58.49,2.36-.4-.88-1.22-2.58-1.3-2.71-1.32-2.1-5.1-5.38-7.79-4.7a3.29,3.29,0,0,0-2.15,4.4c.67,1.84,2.78,3,4.55,3.56,2,.6,6.27.05,6.81,0,.25,1.29.49,2.55.7,3.74.46,2.62.81,5,1.08,7H86c-.32-2.06-.73-4.52-1.28-7.27-.26-1.31-.56-2.71-.88-4.14a35,35,0,0,0,3.79-1.79c1.42,1.54,5.07,3.34,5.54,3.57-.5,1.22-1,2.4-1.48,3.51-1,2.32-2,4.37-2.8,6.12h2c.73-1.61,1.53-3.45,2.36-5.48.51-1.24,1-2.57,1.55-3.94.52.11,4.79,1,6.78.53,1.81-.41,4-1.43,4.81-3.22a3.29,3.29,0,0,0-1.82-4.54c-2.63-.88-6.65,2.11-8.12,4.1-.09.12-.88,1.5-1.37,2.38.2-.56.41-1.1.62-1.68.42-1.15.81-2.3,1.23-3.54.18-.61.36-1.22.55-1.84s.32-1.28.49-1.92c.36-1.51.65-3.05.91-4.6,1,.36,4.58,1.61,6.44,1.48s4.16-.81,5.23-2.46a3.28,3.28,0,0,0-1.1-4.76c-2.47-1.27-6.89,1.07-8.65,2.82-.11.11-1.23,1.51-1.83,2.29.15-.94.3-1.87.42-2.83.34-2.75.6-5.55.87-8.34.08-.85.18-1.7.27-2.56.35.14,4.58,1.71,6.66,1.57,1.84-.13,4.16-.81,5.23-2.46a3.29,3.29,0,0,0-1.1-4.76c-2.47-1.27-6.9,1.07-8.65,2.82-.14.14-1.74,2.15-2.13,2.68.2-1.88.41-3.74.7-5.58a58.76,58.76,0,0,1,1.6-7.33c.17.06,4.57,1.73,6.7,1.58,1.85-.13,4.16-.81,5.23-2.45a3.29,3.29,0,0,0-1.1-4.77c-2.47-1.27-6.89,1.08-8.65,2.82-.14.14-1.87,2.31-2.15,2.72,0-.14.07-.29.11-.42a41.88,41.88,0,0,1,2.9-6.94c.63-1.24,1.31-2.39,2-3.48.79.39,4.41,2.15,6.34,2.23s4.23-.35,5.47-1.87a3.28,3.28,0,0,0-.57-4.85c-2.32-1.54-7,.31-8.91,1.85-.11.09-1.08,1.06-1.78,1.78.31-.49.62-1,.94-1.47,1.16-1.75,2.33-3.28,3.38-4.63.6-.76,1.16-1.44,1.69-2.06,1,0,4.9-.14,6.62-1s3.59-2.25,4-4.17a3.28,3.28,0,0,0-2.75-4c-2.76-.3-6,3.48-7,5.75-.08.19-1.1,3.41-1,3.41h.06c-.52.59-1.07,1.24-1.66,1.95-1.08,1.33-2.29,2.83-3.49,4.57a57.35,57.35,0,0,0-3.63,5.76,43.06,43.06,0,0,0-3.09,7s0,.06,0,.08c0-.81,0-3.08,0-3.26-.32-2.46-2.38-7-5.11-7.53a3.29,3.29,0,0,0-3.79,3.09c-.16,2,1.26,3.91,2.64,5.15,1.56,1.39,5.88,2.74,6.23,2.84a56.84,56.84,0,0,0-1.83,7.54c-.27,1.49-.49,3-.69,4.51,0-.71,0-1.34,0-1.42-.31-2.46-2.38-7-5.11-7.53a3.29,3.29,0,0,0-3.79,3.09c-.16,2,1.26,3.91,2.64,5.14s5.07,2.48,6,2.79c-.07.58-.15,1.16-.22,1.74-.33,2.78-.65,5.57-1,8.28-.14,1-.31,1.9-.48,2.84,0-.62,0-1.15,0-1.23-.31-2.46-2.37-7-5.1-7.53a3.3,3.3,0,0,0-3.8,3.09c-.16,2,1.26,3.91,2.64,5.15s4.71,2.35,5.87,2.72c-.21,1-.41,1.92-.65,2.84-.18.62-.3,1.23-.52,1.85s-.39,1.22-.58,1.83c-.42,1.14-.85,2.33-1.28,3.44-.3.77-.59,1.5-.89,2.24.15-.95.4-2.82.41-3a12.78,12.78,0,0,0-1.71-6.21,4.48,4.48,0,0,0,0-.73A3.28,3.28,0,0,0,88,299c-2.68.71-4.38,5.42-4.51,7.9,0,.14.09,1.74.17,2.74-.14-.58-.26-1.15-.41-1.75-.28-1.19-.6-2.36-.93-3.63-.19-.61-.37-1.22-.56-1.84s-.43-1.24-.65-1.87c-.53-1.45-1.14-2.9-1.78-4.34,1-.25,4.71-1.19,6.19-2.32s3-3,3-4.93A3.28,3.28,0,0,0,85,285.55c-2.76.3-5.15,4.69-5.65,7.12,0,.15-.2,1.94-.27,2.92-.39-.87-.78-1.73-1.21-2.59-1.23-2.49-2.56-5-3.87-7.44-.4-.76-.8-1.52-1.19-2.28.37-.08,4.76-1.1,6.42-2.37,1.46-1.13,3-3,3-4.93a3.29,3.29,0,0,0-3.55-3.37c-2.76.3-5.16,4.7-5.66,7.13,0,.18-.27,2.75-.29,3.4-.87-1.67-1.72-3.35-2.5-5a61.08,61.08,0,0,1-2.71-7c.18,0,4.77-1.08,6.46-2.38,1.47-1.13,3-3,3-4.94a3.28,3.28,0,0,0-3.55-3.36c-2.76.3-5.15,4.7-5.65,7.13,0,.19-.29,2.95-.3,3.45,0-.14-.1-.28-.14-.42a42.09,42.09,0,0,1-1.41-7.39c-.15-1.38-.22-2.7-.26-4,.87-.11,4.86-.64,6.52-1.64S75.5,255,75.7,253a3.29,3.29,0,0,0-3.15-3.74c-2.78,0-5.65,4.1-6.41,6.46,0,.13-.32,1.48-.51,2.47,0-.58,0-1.19,0-1.75,0-2.1.14-4,.27-5.72.08-1,.18-1.84.28-2.66.8-.55,4-2.81,5-4.44s1.75-3.86,1-5.68a3.28,3.28,0,0,0-4.52-1.86c-2.47,1.27-3.12,6.24-2.71,8.69,0,.21,1,3.45,1,3.42l.05,0c-.11.78-.22,1.62-.32,2.54-.17,1.71-.34,3.63-.39,5.74a58.92,58.92,0,0,0,.16,6.81,44.12,44.12,0,0,0,1.26,7.51l0,.09c-.44-.69-1.72-2.57-1.84-2.7-1.62-1.88-5.86-4.54-8.41-3.46A3.29,3.29,0,0,0,55,269.36C56,271.08,58.25,271.93,60.08,272.19Z" style="fill: rgb(38, 50, 56); transform-origin: 89.8502px 278.777px;" id="elxr7mpbdc1mk" class="animable"/><path d="M107.69,259.15s.89-3.24.92-3.45c.34-2.46-.44-7.41-2.94-8.61a3.28,3.28,0,0,0-4.47,2c-.67,1.84.18,4.1,1.18,5.65C103.57,256.55,107.69,259.15,107.69,259.15Z" style="fill: rgb(38, 50, 56); transform-origin: 104.823px 252.976px;" id="eli0k61uz2md" class="animable"/><polygon points="101.38 364.05 74.74 364.05 71.41 318.54 104.71 318.54 101.38 364.05" style="fill: rgb(255, 255, 255); stroke: rgb(38, 50, 56); stroke-linecap: round; stroke-linejoin: round; transform-origin: 88.06px 341.295px;" id="eleqapyy4tvv" class="animable"/><polygon points="72.02 323.96 72.34 326.83 103.78 326.83 104.1 323.96 72.02 323.96" style="fill: rgb(38, 50, 56); transform-origin: 88.06px 325.395px;" id="elo5joak3c29b" class="animable"/><polygon points="103.07 333.14 103.39 330.27 72.73 330.27 73.06 333.14 103.07 333.14" style="fill: rgb(38, 50, 56); transform-origin: 88.06px 331.705px;" id="el0yg4iafb4ifg" class="animable"/><path d="M641.81,258.08c2,.87,6.86.76,6.87.76s-1-3.19-1.14-3.39c-1.07-2.23-4.45-5.93-7.21-5.56A3.29,3.29,0,0,0,637.7,254C638.15,255.92,640.11,257.33,641.81,258.08Z" style="fill: rgb(38, 50, 56); transform-origin: 643.132px 254.354px;" id="elcn4h9chhu9o" class="animable"/><path d="M643.49,272.19c2.07.3,6.42-1,6.76-1.06a58.22,58.22,0,0,0,2.64,7.3c.6,1.39,1.24,2.76,1.91,4.13-.4-.58-.76-1.09-.82-1.16-1.62-1.88-5.86-4.55-8.41-3.46a3.29,3.29,0,0,0-1.46,4.67c.95,1.72,3.21,2.57,5,2.83s5.59-.73,6.57-1l.78,1.57c1.26,2.51,2.53,5,3.7,7.49.41.88.78,1.75,1.16,2.63-.35-.51-.65-.95-.71-1-1.62-1.87-5.86-4.54-8.41-3.46a3.3,3.3,0,0,0-1.46,4.67c1,1.72,3.21,2.57,5,2.84s5.22-.64,6.39-1c.36.91.72,1.82,1,2.72.2.62.43,1.2.59,1.83s.35,1.24.52,1.85c.28,1.18.58,2.4.83,3.57.18.81.33,1.58.49,2.36-.4-.88-1.22-2.58-1.3-2.71-1.32-2.1-5.1-5.38-7.79-4.7a3.29,3.29,0,0,0-2.15,4.4c.67,1.84,2.78,3,4.55,3.56,1.95.6,6.27.05,6.81,0,.25,1.29.49,2.55.7,3.74.46,2.62.81,5,1.08,7h1.82c-.32-2.06-.73-4.52-1.28-7.27-.26-1.31-.56-2.71-.88-4.14a35,35,0,0,0,3.79-1.79c1.42,1.54,5.07,3.34,5.54,3.57-.5,1.22-1,2.4-1.48,3.51-1,2.32-2,4.37-2.8,6.12h2c.73-1.61,1.53-3.45,2.36-5.48.51-1.24,1-2.57,1.55-3.94.52.11,4.79,1,6.78.53,1.81-.41,4-1.43,4.81-3.22a3.29,3.29,0,0,0-1.82-4.54c-2.63-.88-6.65,2.11-8.12,4.1-.09.12-.88,1.5-1.37,2.38.2-.56.41-1.1.62-1.68.42-1.15.81-2.3,1.23-3.54.18-.61.36-1.22.55-1.84s.32-1.28.49-1.92c.36-1.51.65-3.05.91-4.6,1,.36,4.58,1.61,6.44,1.48s4.16-.81,5.23-2.46a3.28,3.28,0,0,0-1.1-4.76c-2.47-1.27-6.89,1.07-8.65,2.82-.11.11-1.23,1.51-1.83,2.29.15-.94.3-1.87.42-2.83.34-2.75.6-5.55.87-8.34.08-.85.18-1.7.27-2.56.35.14,4.58,1.71,6.66,1.57,1.84-.13,4.16-.81,5.23-2.46a3.29,3.29,0,0,0-1.1-4.76c-2.47-1.27-6.9,1.07-8.65,2.82-.14.14-1.74,2.15-2.13,2.68.2-1.88.41-3.74.7-5.58a58.76,58.76,0,0,1,1.6-7.33c.17.06,4.57,1.73,6.7,1.58,1.85-.13,4.16-.81,5.23-2.45A3.29,3.29,0,0,0,697,265c-2.47-1.27-6.89,1.08-8.65,2.82-.14.14-1.87,2.31-2.15,2.72,0-.14.07-.29.11-.42a41.88,41.88,0,0,1,2.9-6.94c.63-1.24,1.31-2.39,2-3.48.79.39,4.41,2.15,6.34,2.23s4.23-.35,5.47-1.87a3.28,3.28,0,0,0-.57-4.85c-2.32-1.54-7,.31-8.91,1.85-.11.09-1.08,1.06-1.78,1.78.31-.49.62-1,.93-1.47,1.17-1.75,2.34-3.28,3.39-4.63.6-.76,1.16-1.44,1.69-2.06,1,0,4.9-.14,6.62-1s3.59-2.25,4-4.17a3.28,3.28,0,0,0-2.75-4c-2.76-.3-6,3.48-7,5.75-.09.19-1.1,3.41-1.05,3.41h.06c-.52.59-1.07,1.24-1.66,1.95-1.08,1.33-2.29,2.83-3.5,4.57a59.2,59.2,0,0,0-3.62,5.76,43.06,43.06,0,0,0-3.09,7s0,.06,0,.08c0-.81,0-3.08-.05-3.26-.32-2.46-2.38-7-5.11-7.53a3.29,3.29,0,0,0-3.79,3.09c-.16,2,1.26,3.91,2.64,5.15,1.56,1.39,5.88,2.74,6.22,2.84a58.43,58.43,0,0,0-1.82,7.54c-.27,1.49-.49,3-.69,4.51,0-.71,0-1.34,0-1.42-.32-2.46-2.38-7-5.11-7.53a3.29,3.29,0,0,0-3.79,3.09c-.16,2,1.26,3.91,2.64,5.14s5.07,2.48,6,2.79c-.07.58-.15,1.16-.22,1.74-.33,2.78-.65,5.57-1,8.28-.14,1-.31,1.9-.48,2.84,0-.62,0-1.15,0-1.23-.31-2.46-2.38-7-5.11-7.53a3.29,3.29,0,0,0-3.79,3.09c-.16,2,1.26,3.91,2.64,5.15s4.71,2.35,5.87,2.72c-.21,1-.41,1.92-.65,2.84-.18.62-.3,1.23-.52,1.85s-.39,1.22-.59,1.83c-.41,1.14-.84,2.33-1.27,3.44-.3.77-.59,1.5-.89,2.24.15-.95.4-2.82.41-3a12.89,12.89,0,0,0-1.71-6.21,4.48,4.48,0,0,0-.05-.73,3.28,3.28,0,0,0-4-2.78c-2.68.71-4.38,5.42-4.51,7.9,0,.14.09,1.74.17,2.74-.14-.58-.26-1.15-.41-1.75-.28-1.19-.6-2.36-.93-3.63-.19-.61-.37-1.22-.56-1.84s-.43-1.24-.65-1.87c-.53-1.45-1.14-2.9-1.78-4.34,1-.25,4.71-1.19,6.19-2.32s3-3,3-4.93a3.28,3.28,0,0,0-3.55-3.36c-2.76.3-5.15,4.69-5.65,7.12,0,.15-.2,1.94-.27,2.92-.39-.87-.78-1.73-1.21-2.59-1.23-2.49-2.56-5-3.87-7.44-.41-.76-.8-1.52-1.19-2.28.37-.08,4.76-1.1,6.41-2.37,1.47-1.13,3-3,3-4.93a3.3,3.3,0,0,0-3.55-3.37c-2.76.3-5.16,4.7-5.66,7.13,0,.18-.27,2.75-.29,3.4-.87-1.67-1.72-3.35-2.5-5a61.08,61.08,0,0,1-2.71-7c.18,0,4.77-1.08,6.46-2.38,1.47-1.13,3-3,3-4.94a3.28,3.28,0,0,0-3.55-3.36c-2.76.3-5.15,4.7-5.65,7.13,0,.19-.29,2.95-.3,3.45,0-.14-.1-.28-.14-.42a42.09,42.09,0,0,1-1.41-7.39c-.15-1.38-.22-2.7-.26-4,.87-.11,4.86-.64,6.52-1.64s3.33-2.62,3.53-4.57a3.29,3.29,0,0,0-3.15-3.74c-2.78,0-5.65,4.1-6.41,6.46,0,.13-.32,1.48-.51,2.47,0-.58,0-1.19,0-1.75,0-2.1.14-4,.27-5.72.08-1,.18-1.84.27-2.66.81-.55,4-2.81,5-4.44s1.75-3.86,1-5.68a3.28,3.28,0,0,0-4.52-1.86c-2.47,1.27-3.12,6.24-2.71,8.69,0,.21,1,3.45,1,3.42l0,0c-.11.78-.22,1.62-.32,2.54-.17,1.71-.34,3.63-.39,5.74a56.76,56.76,0,0,0,.16,6.81,44.12,44.12,0,0,0,1.26,7.51l0,.09c-.44-.69-1.72-2.57-1.84-2.7-1.62-1.88-5.86-4.54-8.41-3.46a3.29,3.29,0,0,0-1.46,4.67C639.4,271.08,641.66,271.93,643.49,272.19Z" style="fill: rgb(38, 50, 56); transform-origin: 673.248px 278.802px;" id="el3p9z9p3fdbc" class="animable"/><path d="M691.1,259.15s.89-3.24.92-3.45c.34-2.46-.44-7.41-2.94-8.61a3.28,3.28,0,0,0-4.47,2c-.67,1.84.18,4.1,1.18,5.65C687,256.55,691.1,259.15,691.1,259.15Z" style="fill: rgb(38, 50, 56); transform-origin: 688.233px 252.976px;" id="elpqe6q7p2fng" class="animable"/><polygon points="684.79 364.05 658.15 364.05 654.82 318.54 688.12 318.54 684.79 364.05" style="fill: rgb(255, 255, 255); stroke: rgb(38, 50, 56); stroke-linecap: round; stroke-linejoin: round; transform-origin: 671.47px 341.295px;" id="elq8iiua1woxd" class="animable"/><polygon points="655.43 323.96 655.75 326.83 687.19 326.83 687.51 323.96 655.43 323.96" style="fill: rgb(38, 50, 56); transform-origin: 671.47px 325.395px;" id="elrkblnu8jzdr" class="animable"/><polygon points="686.48 333.14 686.8 330.27 656.14 330.27 656.46 333.14 686.48 333.14" style="fill: rgb(38, 50, 56); transform-origin: 671.47px 331.705px;" id="elgjpodo5sn1f" class="animable"/></g><g id="freepik--Sofas--inject-95" class="animable" style="transform-origin: 380.42px 337.569px;"><path d="M210,427.19H97.11V290.56a8,8,0,0,1,4.82-7.33l75.41-32.7A32.1,32.1,0,0,1,187.68,248c4-.31,5,.74,6.41,4.53,6,16.71,5.08,33.05,3.63,50.31h45.77s5.43.14,5.43,9.06v54.94Z" style="fill: rgb(191, 191, 191); stroke: rgb(38, 50, 56); stroke-linecap: round; stroke-linejoin: round; transform-origin: 173.015px 337.569px;" id="el4qkq1q0qtaj" class="animable"/><line x1="194.56" y1="305.06" x2="113.52" y2="369.33" style="fill: rgb(255, 255, 255); stroke: rgb(38, 50, 56); stroke-linecap: round; stroke-linejoin: round; transform-origin: 154.04px 337.195px;" id="elij5jke8evqe" class="animable"/><path d="M201.79,370.6H111.6l.94-4.85c5.5-22.85-1.15-66.63-2-71.28s-5.93-8.47-5.93-8.47-2.12-1.58-6.25.27a8,8,0,0,0-1.26,4.29V427.19H208.87c.1-3,.16-5.1.16-5.1s1.15-43.17,0-47.75S201.79,370.6,201.79,370.6Z" style="fill: rgb(145, 145, 145); stroke: rgb(38, 50, 56); stroke-linecap: round; stroke-linejoin: round; transform-origin: 153.321px 356.281px;" id="elbj8aqprr7q9" class="animable"/><path d="M157.62,286.61c1.18,12.71,2,30.77-1.08,43.4" style="fill: none; stroke: rgb(38, 50, 56); stroke-linecap: round; stroke-linejoin: round; transform-origin: 157.609px 308.31px;" id="el14gxbnjnawg" class="animable"/><path d="M150.57,264.42s4.48,3.36,5.22,7.46c.23,1.23.82,5.17,1.41,10.62" style="fill: none; stroke: rgb(38, 50, 56); stroke-linecap: round; stroke-linejoin: round; transform-origin: 153.885px 273.46px;" id="elh75597wp8ne" class="animable"/><path d="M189.83,334h29.38s5.69-.31,7,4.43,0,56.9,0,56.9" style="fill: none; stroke: rgb(38, 50, 56); stroke-linecap: round; stroke-linejoin: round; transform-origin: 208.311px 364.663px;" id="elnd6vyqesfjc" class="animable"/><line x1="163.57" y1="333.97" x2="185.18" y2="333.97" style="fill: none; stroke: rgb(38, 50, 56); stroke-linecap: round; stroke-linejoin: round; transform-origin: 174.375px 333.97px;" id="el1q12u0b80vl" class="animable"/><path d="M550.84,427.19h112.9V290.56a8,8,0,0,0-4.81-7.33l-75.41-32.7A32.1,32.1,0,0,0,573.18,248c-4-.31-5,.74-6.42,4.53-6,16.71-5.08,33.05-3.62,50.31H517.37s-5.43.14-5.43,9.06v54.94Z" style="fill: rgb(191, 191, 191); stroke: rgb(38, 50, 56); stroke-linecap: round; stroke-linejoin: round; transform-origin: 587.84px 337.569px;" id="elvewbk1phzxj" class="animable"/><line x1="566.29" y1="305.06" x2="647.33" y2="369.33" style="fill: rgb(255, 255, 255); stroke: rgb(38, 50, 56); stroke-linecap: round; stroke-linejoin: round; transform-origin: 606.81px 337.195px;" id="elwq8iwps7qbc" class="animable"/><path d="M559.07,370.6h90.19l-1-4.85c-5.5-22.85,1.15-66.63,2-71.28s5.92-8.47,5.92-8.47,2.12-1.58,6.26.27a8,8,0,0,1,1.25,4.29V427.19H552c-.1-3-.17-5.1-.17-5.1s-1.14-43.17,0-47.75S559.07,370.6,559.07,370.6Z" style="fill: rgb(145, 145, 145); stroke: rgb(38, 50, 56); stroke-linecap: round; stroke-linejoin: round; transform-origin: 607.507px 356.281px;" id="el92fs22omlah" class="animable"/><path d="M604,279.52c-1.45,12.13-3.34,35.26.33,50.49" style="fill: none; stroke: rgb(38, 50, 56); stroke-linecap: round; stroke-linejoin: round; transform-origin: 603.266px 304.765px;" id="elzrpc52lbyr" class="animable"/><path d="M610.28,264.42s-4.47,3.36-5.21,7.46" style="fill: none; stroke: rgb(38, 50, 56); stroke-linecap: round; stroke-linejoin: round; transform-origin: 607.675px 268.15px;" id="elli5rn4eg9rb" class="animable"/><path d="M587.91,334H541.64s-5.69-.31-6.95,4.43,0,56.9,0,56.9" style="fill: none; stroke: rgb(38, 50, 56); stroke-linecap: round; stroke-linejoin: round; transform-origin: 561.02px 364.663px;" id="el763aq4hxwfg" class="animable"/><line x1="597.28" y1="333.97" x2="591.98" y2="333.97" style="fill: none; stroke: rgb(38, 50, 56); stroke-linecap: round; stroke-linejoin: round; transform-origin: 594.63px 333.97px;" id="el059wn7cw9rvv" class="animable"/></g><g id="freepik--Speakers--inject-95" class="animable" style="transform-origin: 386.865px 95.03px;"><rect x="118.38" y="70.5" width="69.22" height="49.06" style="fill: rgb(38, 50, 56); stroke: rgb(38, 50, 56); stroke-linecap: round; stroke-linejoin: round; transform-origin: 152.99px 95.03px;" id="el5fcsz1w0gjh" class="animable"/><circle cx="152.99" cy="95.03" r="18.48" style="fill: rgb(66, 66, 66); stroke: rgb(38, 50, 56); stroke-linecap: round; stroke-linejoin: round; transform-origin: 152.99px 95.03px;" id="elyxps0ifdok9" class="animable"/><rect x="586.13" y="70.5" width="69.22" height="49.06" style="fill: rgb(38, 50, 56); stroke: rgb(38, 50, 56); stroke-linecap: round; stroke-linejoin: round; transform-origin: 620.74px 95.03px;" id="eltj15oc81trs" class="animable"/><circle cx="620.74" cy="95.03" r="18.48" style="fill: rgb(66, 66, 66); stroke: rgb(38, 50, 56); stroke-linecap: round; stroke-linejoin: round; transform-origin: 620.74px 95.03px;" id="elj4buhih123a" class="animable"/></g><g id="freepik--musical-notes--inject-95" class="animable" style="transform-origin: 379.376px 152.64px;"><path d="M592.38,128.74c1.77,4.27,3.46,8.36,5.16,12.44,1.37,3.3,2.6,6.66,4.15,9.87s-1.32,7.22-4.16,7.93a2.54,2.54,0,0,1-3.4-2.6c-.12-2.87,2.12-5.33,5.82-6.23l-5-12.05c-5.1,3.27-10,6.4-14.91,9.63-.32.22-.34,1.32-.13,1.86,1.58,4,3.27,8,4.89,12a5.76,5.76,0,0,1-3.42,7.86,3.57,3.57,0,0,1-3-.22,3.73,3.73,0,0,1-.89-3c.56-2.91,2.52-4.66,5.64-5.27-2.84-6.83-5.65-13.57-8.51-20.42Zm-14.07,16.92,15.52-10.27c-.33-.75-.61-1.4-1-2.16l-15.63,10C577.62,144.11,577.94,144.82,578.31,145.66Z" style="fill: rgb(38, 50, 56); transform-origin: 588.373px 149.21px;" id="el29n7732yz74" class="animable"/><path d="M641.18,141.71c.18.62.61,1.3.48,1.85-.53,2.39.35,4.34,1.57,6.28a41,41,0,0,1,3,5.25c1.57,3.53.82,6.79-1.87,9.78,3.7-6.22.74-10.36-4.23-14a8.45,8.45,0,0,0-.41,1.14c-1.4,6.38-2.78,12.77-4.18,19.15a6.78,6.78,0,0,1-8.63,5.08c-2.87-.84-3.59-3.54-1.37-5.58,2.51-2.32,5.47-2.66,8.82-1.34,2-9.18,4-18.29,6-27.41Z" style="fill: rgb(38, 50, 56); transform-origin: 635.639px 159.125px;" id="elhvxp1hqvt6u" class="animable"/><path d="M129.47,128.74c1.77,4.27,3.46,8.36,5.16,12.44,1.37,3.3,2.6,6.66,4.15,9.87s-1.32,7.22-4.16,7.93a2.54,2.54,0,0,1-3.4-2.6c-.12-2.87,2.12-5.33,5.82-6.23l-5-12.05c-5.1,3.27-10,6.4-14.91,9.63-.32.22-.34,1.32-.13,1.86,1.58,4,3.27,8,4.89,12a5.76,5.76,0,0,1-3.42,7.86,3.57,3.57,0,0,1-3-.22,3.73,3.73,0,0,1-.89-3c.56-2.91,2.52-4.66,5.64-5.27-2.84-6.83-5.65-13.57-8.51-20.42ZM115.4,145.66l15.52-10.27c-.33-.75-.61-1.4-.95-2.16l-15.63,10C114.71,144.11,115,144.82,115.4,145.66Z" style="fill: rgb(38, 50, 56); transform-origin: 125.463px 149.21px;" id="el73d9jvt3v22" class="animable"/><path d="M178.27,141.71c.18.62.61,1.3.48,1.85-.53,2.39.35,4.34,1.57,6.28a41,41,0,0,1,3,5.25c1.57,3.53.82,6.79-1.87,9.78,3.7-6.22.74-10.36-4.23-14a8.45,8.45,0,0,0-.41,1.14c-1.4,6.38-2.78,12.77-4.18,19.15a6.78,6.78,0,0,1-8.63,5.08c-2.87-.84-3.59-3.54-1.37-5.58,2.51-2.32,5.47-2.66,8.82-1.34,2-9.18,4-18.29,6-27.41Z" style="fill: rgb(38, 50, 56); transform-origin: 172.729px 159.125px;" id="eljiihn1epbhf" class="animable"/></g><g id="freepik--Screen--inject-95" class="animable" style="transform-origin: 375.445px 159.32px;"><rect x="297.24" y="105.93" width="156.41" height="106.78" style="fill: rgb(38, 50, 56); stroke: rgb(38, 50, 56); stroke-linecap: round; stroke-linejoin: round; transform-origin: 375.445px 159.32px;" id="eljudhnw8qugo" class="animable"/><rect x="302.87" y="110.44" width="145.15" height="97.76" style="fill: #92E3A9; stroke: rgb(38, 50, 56); stroke-linecap: round; stroke-linejoin: round; transform-origin: 375.445px 159.32px;" id="el6agkno2y6cu" class="animable"/><line x1="343.63" y1="133.73" x2="405.08" y2="133.73" style="fill: none; stroke: rgb(255, 255, 255); stroke-linecap: round; stroke-linejoin: round; transform-origin: 374.355px 133.73px;" id="eltzsdg52fdg" class="animable"/><line x1="343.63" y1="162.28" x2="405.08" y2="162.28" style="fill: none; stroke: rgb(255, 255, 255); stroke-linecap: round; stroke-linejoin: round; transform-origin: 374.355px 162.28px;" id="elam361qo5ry8" class="animable"/><line x1="330.16" y1="177.34" x2="418.56" y2="177.34" style="fill: none; stroke: rgb(255, 255, 255); stroke-linecap: round; stroke-linejoin: round; transform-origin: 374.36px 177.34px;" id="elmfmh4muowmf" class="animable"/><line x1="332.14" y1="148.01" x2="416.58" y2="148.01" style="fill: none; stroke: rgb(255, 255, 255); stroke-linecap: round; stroke-linejoin: round; transform-origin: 374.36px 148.01px;" id="elqh2470mgbg" class="animable"/></g><g id="freepik--Table--inject-95" class="animable" style="transform-origin: 375.445px 351.22px;"><rect x="305.7" y="329.35" width="137.9" height="84.77" style="fill: rgb(38, 50, 56); stroke: rgb(38, 50, 56); stroke-linecap: round; stroke-linejoin: round; transform-origin: 374.65px 371.735px;" id="el1hn1fthx6eh" class="animable"/><polygon points="460.7 338.67 290.19 338.67 308.08 301.3 442.81 301.3 460.7 338.67" style="fill: rgb(255, 255, 255); stroke: rgb(38, 50, 56); stroke-linecap: round; stroke-linejoin: round; transform-origin: 375.445px 319.985px;" id="elyvlt0kxsoqd" class="animable"/><rect x="290.19" y="338.67" width="170.36" height="7.72" style="fill: rgb(255, 255, 255); stroke: rgb(38, 50, 56); stroke-linecap: round; stroke-linejoin: round; transform-origin: 375.37px 342.53px;" id="elb54dh8m1s9" class="animable"/><path d="M320.94,303.12V321c0,1.85,4.15,3.35,9.26,3.35,4.69,0,8.57-1.26,9.17-2.9,0,0,0,0,0,0a1,1,0,0,0,.08-.41V303.12" style="fill: none; stroke: rgb(38, 50, 56); stroke-linecap: round; stroke-linejoin: round; transform-origin: 330.195px 313.735px;" id="elw8z039d7ooj" class="animable"/><ellipse cx="330.2" cy="303.12" rx="9.26" ry="3.35" style="fill: none; stroke: rgb(38, 50, 56); stroke-linecap: round; stroke-linejoin: round; transform-origin: 330.2px 303.12px;" id="elg2sjlumc014" class="animable"/><path d="M339.46,310.81V321l-.08.41s0,0,0,0c-.6,1.64-4.48,2.9-9.17,2.9-5.11,0-9.26-1.5-9.26-3.35V310.81Z" style="fill: #92E3A9; stroke: rgb(38, 50, 56); stroke-linecap: round; stroke-linejoin: round; transform-origin: 330.205px 317.56px;" id="el0v9sfa4omc9a" class="animable"/><path d="M339.46,310.81c0,1.86-4.14,3.36-9.26,3.36s-9.25-1.5-9.25-3.36,4.14-3.35,9.25-3.35S339.46,309,339.46,310.81Z" style="fill: #92E3A9; stroke: rgb(38, 50, 56); stroke-linecap: round; stroke-linejoin: round; transform-origin: 330.205px 310.815px;" id="el2svljbn5duu" class="animable"/><path d="M400.48,291.68v17.88c0,1.85,4.15,3.35,9.26,3.35,4.69,0,8.57-1.26,9.17-2.9,0,0,0,0,0,0a1,1,0,0,0,.08-.41V291.68" style="fill: none; stroke: rgb(38, 50, 56); stroke-linecap: round; stroke-linejoin: round; transform-origin: 409.735px 302.295px;" id="elk02oob90q38" class="animable"/><ellipse cx="409.74" cy="291.67" rx="9.26" ry="3.35" style="fill: none; stroke: rgb(38, 50, 56); stroke-linecap: round; stroke-linejoin: round; transform-origin: 409.74px 291.67px;" id="elt54jlophic" class="animable"/><path d="M419,299.37v10.19l-.08.41s0,0,0,0c-.6,1.64-4.48,2.9-9.17,2.9-5.11,0-9.26-1.5-9.26-3.35V299.37Z" style="fill: #92E3A9; stroke: rgb(38, 50, 56); stroke-linecap: round; stroke-linejoin: round; transform-origin: 409.745px 306.12px;" id="elzctpvcm4ub" class="animable"/><path d="M419,299.37c0,1.85-4.15,3.35-9.26,3.35s-9.26-1.5-9.26-3.35,4.15-3.35,9.26-3.35S419,297.52,419,299.37Z" style="fill: #92E3A9; stroke: rgb(38, 50, 56); stroke-linecap: round; stroke-linejoin: round; transform-origin: 409.74px 299.37px;" id="el3xifhm2rphe" class="animable"/></g><g id="freepik--character-2--inject-95" class="animable" style="transform-origin: 496.474px 254.162px;"><path d="M461.71,160.75l-22.18,16a2,2,0,0,0-.53,2.71h0a2,2,0,0,0,2.68.69L466,166.74Z" style="fill: rgb(38, 50, 56); stroke: rgb(38, 50, 56); stroke-linecap: round; stroke-linejoin: round; transform-origin: 452.343px 170.578px;" id="elj0lad8d46q" class="animable"/><path d="M470.56,166a5.58,5.58,0,1,0-7.7-1.75A5.59,5.59,0,0,0,470.56,166Z" style="fill: rgb(201, 201, 201); stroke: rgb(38, 50, 56); stroke-linecap: round; stroke-linejoin: round; transform-origin: 467.584px 161.278px;" id="elrvvk9kjupxa" class="animable"/><path d="M487.78,114.53s-7.34,6.49-8.37,10.59-1.36,11.09-3.07,13.48-4.95,4.44-4.1,6.49a6,6,0,0,0,2.91,2.9s4.26,11.26,5.63,12.11,6.31-1.19,6.31-1.19l1.88,7.34,18.09-7-1.36-7.17s5.63-3.24,10.24-11.77,3.24-15-2.39-21.51-18.09-9-21.51-8S486.24,111.29,487.78,114.53Z" style="fill: rgb(255, 255, 255); stroke: rgb(38, 50, 56); stroke-linecap: round; stroke-linejoin: round; transform-origin: 495.407px 138.418px;" id="elpna3dm4957e" class="animable"/><path d="M515.94,140.31c4.61-8.54,3.24-15-2.39-21.51s-18.09-9-21.51-8-5.8.51-4.26,3.75c0,0,7.85,1,6.14,5.29s-6.49,6.66-5.12,8.37a45.94,45.94,0,0,0,5.29,4.78s-1.36,2.39,0,2.73,3.24-1.71,4.44-1.71,3.41,2.39,2.05,7-6.83,5.29-6.83,5.29,2.39,3.93,4.1,4.61a30.18,30.18,0,0,0,7.85,1.19S511.33,148.84,515.94,140.31Z" style="fill: rgb(38, 50, 56); stroke: rgb(38, 50, 56); stroke-linecap: round; stroke-linejoin: round; transform-origin: 503.007px 131.343px;" id="elk49i9yqiyw8" class="animable"/><path d="M481.12,137.4c0,1.23-.38,2.22-.85,2.22s-.86-1-.86-2.22.38-2.21.86-2.21S481.12,136.18,481.12,137.4Z" style="fill: rgb(38, 50, 56); transform-origin: 480.265px 137.405px;" id="elzlr1ix23m5r" class="animable"/><path d="M477.88,149s4.09-.85,5.63-3.75c0,0,.68,5.46-1.54,6S477.88,149,477.88,149Z" style="fill: rgb(38, 50, 56); transform-origin: 480.744px 148.285px;" id="elmsvsgy08gy" class="animable"/><path d="M479.41,132.28s1.54-1.87,2.39.52" style="fill: none; stroke: rgb(38, 50, 56); stroke-linecap: round; stroke-linejoin: round; transform-origin: 480.605px 132.192px;" id="elof3neal24h" class="animable"/><path d="M493.75,146.28a15.23,15.23,0,0,1-2.39,4.78" style="fill: none; stroke: rgb(38, 50, 56); stroke-linecap: round; stroke-linejoin: round; transform-origin: 492.555px 148.67px;" id="el97a4vjxuo6" class="animable"/><path d="M508.26,155.33s-14.51,4.77-17.75,6.48a82.44,82.44,0,0,0-7.17,4.44l-.68,7s31.06-11.44,31.57-11.61S509.62,156,508.26,155.33Z" style="fill: rgb(255, 255, 255); stroke: rgb(38, 50, 56); stroke-linecap: round; stroke-linejoin: round; transform-origin: 498.463px 164.29px;" id="elzjg9tlhbco" class="animable"/><path d="M537.61,107.88l-6.82-13s2.27-11.48,1.47-12.94-10.14-5.07-11.34-6-2.8,2-3.07,2.4-3.07,5.74-3.07,5.74-2.14-.4-2.67,1.07.53,3.6.93,4.14a43.29,43.29,0,0,1,2.67,3.47c.54.93,1.47,3.2,2.41,3.46s4.8,1.21,4.8,1.21l5.6,16.41Z" style="fill: rgb(255, 255, 255); stroke: rgb(38, 50, 56); stroke-linecap: round; stroke-linejoin: round; transform-origin: 524.787px 94.7993px;" id="eltzo0v19g65n" class="animable"/><path d="M514.78,84.11l3.34,2.94A50.38,50.38,0,0,0,522,82.64" style="fill: none; stroke: rgb(38, 50, 56); stroke-linecap: round; stroke-linejoin: round; transform-origin: 518.39px 84.845px;" id="eldswvt806ep6" class="animable"/><path d="M520.78,84.38s-2.8-.8-3.2-2.54" style="fill: none; stroke: rgb(38, 50, 56); stroke-linecap: round; stroke-linejoin: round; transform-origin: 519.18px 83.11px;" id="el7emb10ud48b" class="animable"/><path d="M485.39,171.54s-18.27,9.73-20.14,10.92-9.9,15.54-9.9,15.54l1.87-15.71s6.15-4.78,6.49-5.8-1.14-7.48-1.14-7.48,0,1.31-2.23-.23-2.11-5-2.11-6-3.57-3-5.61-1.63a5.12,5.12,0,0,0-2.22,3.58,26.49,26.49,0,0,0-4.27,2.73c-1,1-1.36,2.56-1.88,4.27a7,7,0,0,0,.69,5.46,18.21,18.21,0,0,1,1.7,4.27c.34,1.36-5.12,25.77-5.12,25.77s-5.8,22-5.29,23.73,5.46,6.14,7.51,6.31,7-1.19,8.53-3.07S470.54,214,470.54,214s-3.78,33.11-4,34.47,4.61,5.81,6.66,6.49,16.21,6.31,26.8,4.95,16.55-6,17.57-7.17,1.88-3.07,2.57-7.34,2.06-11.43,2.57-14.85S532,184.17,532,184.17l10.92-18.6s13.83-24.58,13.83-26.63-19.12-31.06-19.12-31.06l-8.7,4.26,9.22,30.9-19.29,15.7s-3.41.34-3.76.85a27.09,27.09,0,0,1-2.73,2.39Z" style="fill: #92E3A9; stroke: rgb(38, 50, 56); stroke-linecap: round; stroke-linejoin: round; transform-origin: 496.474px 184.001px;" id="el6aqyc9drzyn" class="animable"/><path d="M527,111.8l1.88,7.34,14-6s-3.24-6.66-3.92-6.83S529.25,109.58,527,111.8Z" style="fill: rgb(255, 255, 255); stroke: rgb(38, 50, 56); stroke-linecap: round; stroke-linejoin: round; transform-origin: 534.94px 112.722px;" id="eltcc9n1ngni" class="animable"/><path d="M516.45,162a21.28,21.28,0,0,1,5.8,7.68" style="fill: none; stroke: rgb(38, 50, 56); stroke-linecap: round; stroke-linejoin: round; transform-origin: 519.35px 165.84px;" id="eliey056bbkl" class="animable"/><path d="M520.38,161.64s5.8,1.88,7,6.83" style="fill: none; stroke: rgb(38, 50, 56); stroke-linecap: round; stroke-linejoin: round; transform-origin: 523.88px 165.055px;" id="eluml4e36y" class="animable"/><path d="M538.13,143a14.15,14.15,0,0,1,7.85,1.19" style="fill: none; stroke: rgb(38, 50, 56); stroke-linecap: round; stroke-linejoin: round; transform-origin: 542.055px 143.532px;" id="elzzwa6eemal" class="animable"/><line x1="470.54" y1="214.04" x2="475.83" y2="208.41" style="fill: none; stroke: rgb(38, 50, 56); stroke-linecap: round; stroke-linejoin: round; transform-origin: 473.185px 211.225px;" id="elvi8q3xgmyf" class="animable"/><path d="M515.89,219.9a57.9,57.9,0,0,1-4.56,7.62" style="fill: none; stroke: rgb(38, 50, 56); stroke-linecap: round; stroke-linejoin: round; transform-origin: 513.61px 223.71px;" id="elodh2roaj98" class="animable"/><path d="M528.06,194.41s-5,11.31-9.83,20.92" style="fill: none; stroke: rgb(38, 50, 56); stroke-linecap: round; stroke-linejoin: round; transform-origin: 523.145px 204.87px;" id="elfafutjw85sg" class="animable"/><path d="M503.12,226.61a23,23,0,0,1-3.4,3.13" style="fill: none; stroke: rgb(38, 50, 56); stroke-linecap: round; stroke-linejoin: round; transform-origin: 501.42px 228.175px;" id="elqm1hw6r5qh" class="animable"/><path d="M511.33,216.6s-3,4.1-6.24,7.81" style="fill: none; stroke: rgb(38, 50, 56); stroke-linecap: round; stroke-linejoin: round; transform-origin: 508.21px 220.505px;" id="ely4psvlee6d" class="animable"/><line x1="455.35" y1="198" x2="442.03" y2="219.33" style="fill: none; stroke: rgb(38, 50, 56); stroke-linecap: round; stroke-linejoin: round; transform-origin: 448.69px 208.665px;" id="eloibr3j1c8a" class="animable"/><path d="M455.69,194.92l0-.12,1.49-12.51s6.15-4.78,6.49-5.8-1.14-7.48-1.14-7.48,0,1.31-2.23-.23-2.11-5-2.11-6-3.57-3-5.61-1.63a5.12,5.12,0,0,0-2.22,3.58,26.49,26.49,0,0,0-4.27,2.73c-1,1-1.36,2.56-1.88,4.27a7,7,0,0,0,.69,5.46,18.21,18.21,0,0,1,1.7,4.27c.18.69-1.13,7.26-2.47,13.6A22.35,22.35,0,0,1,455.69,194.92Z" style="fill: rgb(255, 255, 255); stroke: rgb(38, 50, 56); stroke-linecap: round; stroke-linejoin: round; transform-origin: 453.831px 177.873px;" id="elmwak3ajqcs9" class="animable"/><path d="M442.72,191.34l-1.71,9.9a13.62,13.62,0,0,1,6.14-2.22,14.35,14.35,0,0,1,7,.85l3.25-4.78a8.06,8.06,0,0,0-6.32-4.43A18.23,18.23,0,0,0,442.72,191.34Z" style="fill: rgb(255, 255, 255); stroke: rgb(38, 50, 56); stroke-linecap: round; stroke-linejoin: round; transform-origin: 449.205px 195.846px;" id="eld4meb4ks9k9" class="animable"/><path d="M508.09,414.77s-2.57,4.63-3.6,6.43-7.45,4.88-7.71,5.91-.77,2.06,4.63,2.83a85.16,85.16,0,0,0,14.14,1.29c5.65,0,8.23,1.28,11.83-1.8s.77-7.72.51-9.77-1-5.92-1-5.92Z" style="fill: rgb(255, 255, 255); stroke: rgb(38, 50, 56); stroke-linecap: round; stroke-linejoin: round; transform-origin: 512.913px 422.617px;" id="elhfp5107qx3m" class="animable"/><path d="M475.44,415.8s-5.14,4.37-8,5.66-10,3.85-10.29,4.62.77,3.09,2.06,3.35,26.74,3.6,31.37,3.08,7.45-.51,7.71-2.31-2.06-12.6-2.06-12.6Z" style="fill: rgb(255, 255, 255); stroke: rgb(38, 50, 56); stroke-linecap: round; stroke-linejoin: round; transform-origin: 477.706px 424.182px;" id="el0wdtrfys77v" class="animable"/><path d="M466.25,246.85l-3.41,33.45s-4.37,47.05-2.57,54,14.4,65,14.4,65-3.35,3.35-2.83,4.63,1.8,7.46,1.8,7.46a21.31,21.31,0,0,0-1.8,6.17s8.23,2.83,12.34,3.34,11.83-.26,12.6-1-.52-9.77-1-12.6-3.09-18.25-3.09-21.85-7.71-55.8-7.71-55.8l6.69-28-1,30.08s16.2,67.62,16.45,68.65-1,2.83-1,4.12,2.06,10.28,2.06,10.28,4.63,4.37,10.29,4.37a14.75,14.75,0,0,0,9-2.83s1-7.71,0-11.05-5.15-11.57-5.15-12.6-2.57-46.54-3.6-52.71S513.75,325,513.75,325l4.63-36.51s3.67-17,2.89-22.91a139.42,139.42,0,0,0-3.6-15.68A102.71,102.71,0,0,1,493,252.77C480.14,252.51,466.25,246.85,466.25,246.85Z" style="fill: rgb(38, 50, 56); stroke: rgb(38, 50, 56); stroke-linecap: round; stroke-linejoin: round; transform-origin: 493.875px 333.957px;" id="el7z65tj19yno" class="animable"/><polyline points="491.89 299.32 494.72 288.01 508.61 281.33" style="fill: none; stroke: rgb(255, 255, 255); stroke-linecap: round; stroke-linejoin: round; transform-origin: 500.25px 290.325px;" id="el15fm09xsxf9" class="animable"/></g><g id="freepik--character-1--inject-95" class="animable" style="transform-origin: 264.731px 272.991px;"><path d="M271.28,120.14s-2.12-5.91-4.24-6.06-1.06,4.09-1.06,4.09-10.44-6.06-12.56-4.39a2.77,2.77,0,0,0-.91,3.78c.15.46-11-.91-16.49,5.15s-14.53,25.88-13,27.85,5.3.45,5.3.45-3.48,4.69-2,6.05,5.3-.9,5.3-.9S231.17,166,233,166.3s5-1.67,5-1.67-.15,4.39,3.64,5,5-1.37,5-1.37a15.58,15.58,0,0,0,3.18,1.52c.6,0,3.48-2,3.48-2s6.36,4.09,11.65,3.94,6.81-2.12,6.81-2.12,2.88.91,3.94-.46,1.06-5.75,1.06-5.75,2.72,2.42,3.18,0-1.52-12.56-1.52-12.56l-.45-4.84s3.78,1.21,6.51,2,4.08-1.51,2.72-4.38-2.42-4.85-2.42-4.85,4.09.15,4.09-2.42-4.09-6.66-4.54-6.66,4.54-1.66,3.48-3.63-12-2.12-12-2.12,5.9-3.94,2.42-5.6S271.28,120.14,271.28,120.14Z" style="fill: rgb(38, 50, 56); stroke: rgb(38, 50, 56); stroke-linecap: round; stroke-linejoin: round; transform-origin: 255.859px 142.606px;" id="elpvyc64cpfln" class="animable"/><path d="M279.11,182.54s5.71-.17,8.48,7.09,8.12,31,8.12,31L306.78,208s-3.46-4.84-3.28-6.4a88.5,88.5,0,0,1,2.59-8.47s10.51,2.61,10.67,3.88c.29,2.41-3.58,15.66-5.66,19.29s-9.16,15.91-13.14,20.41-5.19,5.71-6.74,4.15-10.55-13.32-10.55-13.32S281.88,219,277,204s-5.54-21.78-4.5-22A56.83,56.83,0,0,1,279.11,182.54Z" style="fill: rgb(168, 168, 168); stroke: rgb(38, 50, 56); stroke-linecap: round; stroke-linejoin: round; transform-origin: 294.427px 211.754px;" id="elvfejw4ul5fe" class="animable"/><path d="M297.36,218.71l-1.65,1.88s-5.36-23.7-8.12-31-8.48-7.09-8.48-7.09a56.83,56.83,0,0,0-6.57-.52c-1,.18-.35,6.92,4.5,22s3.63,23.52,3.63,23.52,9,11.76,10.55,13.32,2.76.34,6.74-4.15a88.6,88.6,0,0,0,7.28-10.53C301.59,224.89,298.47,220.46,297.36,218.71Z" style="fill: #92E3A9; stroke: rgb(38, 50, 56); stroke-linecap: round; stroke-linejoin: round; transform-origin: 288.69px 211.723px;" id="el7pxoqag9oru" class="animable"/><path d="M232.2,411.55s4.15,4.83,8.29,9.44,8.75,5.76,8.29,8.06-2.3,4.38-9.9,3a74.33,74.33,0,0,1-18-5.52c-6-3-1.61-7.14-1.15-9.45S223,409,223,409Z" style="fill: rgb(255, 255, 255); stroke: rgb(38, 50, 56); stroke-linecap: round; stroke-linejoin: round; transform-origin: 233.281px 420.746px;" id="elmpwjeqv9zth" class="animable"/><path d="M284.6,409.21s3.8,5.79,6.56,7.86,11.28,8.07,10.36,9.91-8.75,2.76-13.35,1.38-7.37-3.92-11.06-5.07-6.91,0-8.52-4.6,3-13.59,3-13.59S277.35,411,284.6,409.21Z" style="fill: rgb(255, 255, 255); stroke: rgb(38, 50, 56); stroke-linecap: round; stroke-linejoin: round; transform-origin: 284.919px 417.062px;" id="el7myt93yfp1e" class="animable"/><path d="M284.9,199.59s3.18,15.9,2.73,21.19-11.81,18.16-11.81,18.16l-1.66,21.65s3,13.92,4.54,19.22,5.6,24.06,5.29,31.63.76,20.43.76,20.43S286,345,286,362.6s-1.21,37.23-1.21,37.23.3,7-.15,9.38-3.79,2.42-7.27,3-6.35-3-6.35-3,1.81-29.36-2.42-40.86-5-29.21-5-29.21-.3,5.14-4.54,14.83-22.1,49.79-23,53.73a42.07,42.07,0,0,1-2.27,7,16.68,16.68,0,0,1-6.66-.3,8.94,8.94,0,0,1-5.15-3.18s6.81-24.67,9.69-38.9,10.14-36,10.14-36-30.58-50.55-29.67-62.05,22.25-38.44,22.25-38.44-1.66-45.71-.76-48.13S249,180.52,249,180.52a10.91,10.91,0,0,0,3.33-5.44c.76-3.33.46-17.56.46-17.56l15.28,8.63s-.3,11.95.61,13.77S282,183.4,282,183.4" style="fill: #92E3A9; stroke: rgb(38, 50, 56); stroke-linecap: round; stroke-linejoin: round; transform-origin: 249.897px 286.212px;" id="elyd1ew5k0kx" class="animable"/><path d="M268.71,179.92c-.91-1.82-.61-13.77-.61-13.77l-15.28-8.63s.3,14.23-.46,17.56a10.91,10.91,0,0,1-3.33,5.44l-.85.29c2.42,1.77,9.06,6,15.23,4.71a12.53,12.53,0,0,0,7.06-4.53A3.49,3.49,0,0,1,268.71,179.92Z" style="fill: rgb(168, 168, 168); stroke: rgb(38, 50, 56); stroke-linecap: round; stroke-linejoin: round; transform-origin: 259.325px 171.64px;" id="ellmzmqr7cdl" class="animable"/><polygon points="259.03 166.65 268.17 175.53 268.43 172.66 271.73 169.63 259.03 166.65" style="fill: rgb(38, 50, 56); stroke: rgb(38, 50, 56); stroke-linecap: round; stroke-linejoin: round; transform-origin: 265.38px 171.09px;" id="eltk1nhumqi1" class="animable"/><path d="M284.6,409.21c.45-2.42.15-9.38.15-9.38S286,380.15,286,362.6s-1.21-30.73-1.21-30.73S283.69,319,284,311.44s-3.78-26.33-5.29-31.63-4.54-19.22-4.54-19.22l1.19-15.54a59.05,59.05,0,0,1-16.33.71c-13.92-1.22-24.67-10-24.67-10S213,262.71,212.1,274.21s29.67,62.05,29.67,62.05-7.27,21.8-10.14,36-9.69,38.9-9.69,38.9a8.94,8.94,0,0,0,5.15,3.18,16.68,16.68,0,0,0,6.66.3,42.07,42.07,0,0,0,2.27-7c.9-3.94,18.76-44,23-53.73s4.54-14.83,4.54-14.83.76,17.71,5,29.21S271,409.21,271,409.21s2.87,3.63,6.35,3S284.14,411.63,284.6,409.21Z" style="fill: rgb(38, 50, 56); stroke: rgb(38, 50, 56); stroke-linecap: round; stroke-linejoin: round; transform-origin: 249.04px 325.301px;" id="el7gy7mqb9248" class="animable"/><path d="M259.78,246.66s-8.63,13-7.87,13.93,3.93,4.08,4.84,2.27,4.24-15,4.24-15-1.06,17.71.45,17.71,3.79.15,3.63-2.12-2.42-13.92-2.72-16.19S259.78,246.66,259.78,246.66Z" style="fill: rgb(255, 255, 255); stroke: rgb(38, 50, 56); stroke-linecap: round; stroke-linejoin: round; transform-origin: 258.47px 255.82px;" id="elgw3w7oem89" class="animable"/><path d="M293.09,172.85a5.69,5.69,0,1,0,.11,8A5.68,5.68,0,0,0,293.09,172.85Z" style="fill: rgb(201, 201, 201); stroke: rgb(38, 50, 56); stroke-linecap: round; stroke-linejoin: round; transform-origin: 289.101px 176.906px;" id="el9dmr4ziji26" class="animable"/><path d="M290,182.85,314,203.56a2.05,2.05,0,0,0,2.8-.12h0a2,2,0,0,0,0-2.82L295,177.23Z" style="fill: rgb(38, 50, 56); stroke: rgb(38, 50, 56); stroke-linecap: round; stroke-linejoin: round; transform-origin: 303.691px 190.643px;" id="elguumies3e9" class="animable"/><path d="M239.35,184.16s-10.75,3.17-13.93,7.72S231.17,230.62,233,235s4.54,9.53,6.66,9.38,17.4-10.14,26.33-20,23.31-22.1,23.31-22.1,3.18-1.82,3.78-3.48,2.43-7.72,2.43-7.72,3.78-2.42,6.5-4.09,5.15-3.93,3.48-4.24-4.08,1.37-4.08,1.37l-2.88,1.21,1.54-1.21a6.12,6.12,0,0,1,3-1.24l.39,0a4.07,4.07,0,0,0-.27-1.89,2.57,2.57,0,0,0-1-1c-.11,0-.32-.13-.43,0,0-.07,0,.07,0,0-.88-1.62-1.95-1.75-2-1.36,0,0-.23-1.2-.72-1.47a14,14,0,0,0-2.15-.65c-.46-.15-4.33,1-7.21,3.54s-2.18,2.81-2.48,4.48S284,196.87,284,196.87s-12.1,7.42-15.59,9.38-20.13,11.66-20.13,11.66l-5.48-18.59" style="fill: #92E3A9; stroke: rgb(38, 50, 56); stroke-linecap: round; stroke-linejoin: round; transform-origin: 265.39px 210.44px;" id="elqha8jsrw71q" class="animable"/><path d="M305.48,182.79c-1.66-.3-4.08,1.37-4.08,1.37l-2.88,1.21,1.54-1.21a6.12,6.12,0,0,1,3-1.24l.39,0a4.07,4.07,0,0,0-.27-1.89,2.57,2.57,0,0,0-1-1c-.11,0-.32-.12-.43,0h0c-.88-1.62-1.95-1.75-2-1.36,0,0-.23-1.2-.72-1.47a14,14,0,0,0-2.15-.65c-.46-.15-4.33,1-7.21,3.54s-2.18,2.81-2.48,4.48S284,196.87,284,196.87s-12.1,7.42-15.59,9.38l-4,2.3a11.27,11.27,0,0,0,4.68,7.89c1,.74,1.89,1.4,2.67,2,8.27-8.21,17.54-16.11,17.54-16.11s3.18-1.82,3.78-3.48,2.43-7.72,2.43-7.72,3.78-2.42,6.5-4.09S307.15,183.1,305.48,182.79Z" style="fill: rgb(168, 168, 168); stroke: rgb(38, 50, 56); stroke-linecap: round; stroke-linejoin: round; transform-origin: 285.22px 197.489px;" id="elpleaxi8innc" class="animable"/><path d="M301.7,179.92Z" style="fill: none; stroke: rgb(38, 50, 56); stroke-linecap: round; stroke-linejoin: round; transform-origin: 301.7px 179.92px;" id="elyudcy4iwcnd" class="animable"/><path d="M301.7,179.92s-5.14,2-7.57,5.3" style="fill: none; stroke: rgb(38, 50, 56); stroke-linecap: round; stroke-linejoin: round; transform-origin: 297.915px 182.57px;" id="el6ypqkc1o22p" class="animable"/><path d="M299.73,178.56s-5.75,1.81-8.32,4.69" style="fill: none; stroke: rgb(38, 50, 56); stroke-linecap: round; stroke-linejoin: round; transform-origin: 295.57px 180.905px;" id="el7d7z2jzetbe" class="animable"/><path d="M297.64,176.87s-5.58,2.73-7.59,4.86" style="fill: none; stroke: rgb(38, 50, 56); stroke-linecap: round; stroke-linejoin: round; transform-origin: 293.845px 179.3px;" id="ely1jh79lt2h" class="animable"/><line x1="298.52" y1="185.37" x2="296.1" y2="187.33" style="fill: none; stroke: rgb(38, 50, 56); stroke-linecap: round; stroke-linejoin: round; transform-origin: 297.31px 186.35px;" id="elpfog5w95mu" class="animable"/><path d="M309.62,187.94a3.67,3.67,0,0,0-3.25-1c-2,.36-2.28,1.32-1.32,1.92s1.44.85,3.61.6S309.62,187.94,309.62,187.94Z" style="fill: rgb(168, 168, 168); stroke: rgb(38, 50, 56); stroke-linecap: round; stroke-linejoin: round; transform-origin: 307.237px 188.217px;" id="elahygvpkibj" class="animable"/><path d="M312.64,190.16a4.07,4.07,0,0,0-3.6-1.06c-2.26.4-2.53,1.46-1.46,2.13s1.6.93,4,.67S312.64,190.16,312.64,190.16Z" style="fill: rgb(168, 168, 168); stroke: rgb(38, 50, 56); stroke-linecap: round; stroke-linejoin: round; transform-origin: 309.994px 190.512px;" id="el3vri9ypp40r" class="animable"/><path d="M315,192.64a4.07,4.07,0,0,0-3.6-1.07c-2.27.4-2.54,1.47-1.47,2.13s1.6.94,4,.67S315,192.64,315,192.64Z" style="fill: rgb(168, 168, 168); stroke: rgb(38, 50, 56); stroke-linecap: round; stroke-linejoin: round; transform-origin: 312.347px 192.984px;" id="ele9wxn81fjoq" class="animable"/><path d="M316.6,195.7a3.18,3.18,0,0,0-2.82-.84c-1.78.32-2,1.16-1.15,1.68s1.25.73,3.14.52S316.6,195.7,316.6,195.7Z" style="fill: rgb(168, 168, 168); stroke: rgb(38, 50, 56); stroke-linecap: round; stroke-linejoin: round; transform-origin: 314.524px 195.971px;" id="elruhoba4vsd" class="animable"/><path d="M303.82,201.84s.13-3.53-.8-5.4-2.81-3.74-2.14-4.47,2.07.2,3.34,1.27,1.46,5.2,1.6,5.47,3.4,1.6,3.93,3.93a11.64,11.64,0,0,1,.4,3.54" style="fill: rgb(168, 168, 168); stroke: rgb(38, 50, 56); stroke-linecap: round; stroke-linejoin: round; transform-origin: 305.449px 198.945px;" id="el1f9w2yo1k3g" class="animable"/><path d="M248.78,271.52s14.28,25.56,15.2,63.79" style="fill: none; stroke: rgb(255, 255, 255); stroke-linecap: round; stroke-linejoin: round; transform-origin: 256.38px 303.415px;" id="el7pc3zik1wql" class="animable"/><path d="M255.92,280s5.76-5.3,8.75-8.29" style="fill: none; stroke: rgb(255, 255, 255); stroke-linecap: round; stroke-linejoin: round; transform-origin: 260.295px 275.855px;" id="elmcqp1g4ilnp" class="animable"/><path d="M269.92,135.88s-2.27,1.21-4.39,2.12-1.82-3.79-1.82-3.79-5.9,6.81-8.62,8.48a11.6,11.6,0,0,1-4.24,1.81s1.66,5.6,0,6.36-2.58-.15-3.18-.3-3.18,2.72-2.88,4.84,2.12,3.63,3.18,4.39,3.63,0,3.63,0,5.3,7,10.6,9.08,7.72,2.88,9.53.76,5.91-5.6,7-12-.76-14.23-.76-16.95-2.88-5.3-2.88-5.3S271.13,140.11,269.92,135.88Z" style="fill: rgb(168, 168, 168); stroke: rgb(38, 50, 56); stroke-linecap: round; stroke-linejoin: round; transform-origin: 261.92px 152.544px;" id="ellz38edowvbl" class="animable"/><path d="M275.37,143.75s-1.52,3.78-1.06,4.84,3.78,3.18,2.72,4.39-4.84,1.51-4.84,1.51" style="fill: none; stroke: rgb(38, 50, 56); stroke-linecap: round; stroke-linejoin: round; transform-origin: 274.714px 149.12px;" id="elpnq5s18vzxh" class="animable"/><path d="M274.46,157.37s-5.75,2.27-9.23-2.12" style="fill: none; stroke: rgb(38, 50, 56); stroke-linecap: round; stroke-linejoin: round; transform-origin: 269.845px 156.603px;" id="eln732dnhhisa" class="animable"/><path d="M266.13,156.31s0,4.24,1.37,5.14,3.33-3.48,3.33-3.48S267,157.37,266.13,156.31Z" style="fill: rgb(38, 50, 56); stroke: rgb(38, 50, 56); stroke-linecap: round; stroke-linejoin: round; transform-origin: 268.48px 158.941px;" id="el0t9ym26ast1n" class="animable"/><path d="M263,146.92s3.48-.9,5.44.31" style="fill: none; stroke: rgb(38, 50, 56); stroke-linecap: round; stroke-linejoin: round; transform-origin: 265.72px 146.914px;" id="elmgddo2m8bb" class="animable"/><path d="M275.22,147.23a4,4,0,0,1,3.17,1.21" style="fill: none; stroke: rgb(38, 50, 56); stroke-linecap: round; stroke-linejoin: round; transform-origin: 276.805px 147.83px;" id="el46434q4k4uo" class="animable"/><path d="M262.05,143.29a8.08,8.08,0,0,1,7.41-2" style="fill: none; stroke: rgb(38, 50, 56); stroke-linecap: round; stroke-linejoin: round; transform-origin: 265.755px 142.182px;" id="elon495su283" class="animable"/><path d="M276.12,141.93a3.2,3.2,0,0,1,2,1.51" style="fill: none; stroke: rgb(38, 50, 56); stroke-linecap: round; stroke-linejoin: round; transform-origin: 277.12px 142.685px;" id="elso1vh302cz" class="animable"/></g><defs>     <filter id="active" height="200%">         <feMorphology in="SourceAlpha" result="DILATED" operator="dilate" radius="2"/>                <feFlood flood-color="#32DFEC" flood-opacity="1" result="PINK"/>        <feComposite in="PINK" in2="DILATED" operator="in" result="OUTLINE"/>        <feMerge>            <feMergeNode in="OUTLINE"/>            <feMergeNode in="SourceGraphic"/>        </feMerge>    </filter>    <filter id="hover" height="200%">        <feMorphology in="SourceAlpha" result="DILATED" operator="dilate" radius="2"/>                <feFlood flood-color="#ff0000" flood-opacity="0.5" result="PINK"/>        <feComposite in="PINK" in2="DILATED" operator="in" result="OUTLINE"/>        <feMerge>            <feMergeNode in="OUTLINE"/>            <feMergeNode in="SourceGraphic"/>        </feMerge>            <feColorMatrix type="matrix" values="0   0   0   0   0                0   1   0   0   0                0   0   0   0   0                0   0   0   1   0 "/>    </filter></defs></svg>