<?xml version="1.0" encoding="iso-8859-1"?>
<!-- Uploaded to: SVG Repo, www.svgrepo.com, Generator: SVG Repo Mixer Tools -->
<svg version="1.1" id="Layer_1" xmlns="http://www.w3.org/2000/svg" xmlns:xlink="http://www.w3.org/1999/xlink" 
	 viewBox="0 0 512 512" xml:space="preserve">
<rect x="411.05" y="397.55" transform="matrix(-0.7071 0.7071 -0.7071 -0.7071 1034.1779 426.5745)" style="fill:#3E3D43;" width="35.384" height="59.845"/>
<path style="fill:#59A4FF;" d="M212.695,141.324c-1.262,7.257-3.459,14.382-6.582,21.186c-4.146,9.035-9.93,17.502-17.372,24.945
	c-7.442,7.442-15.91,13.226-24.945,17.372c-6.803,3.123-13.928,5.32-21.186,6.582l238.523,221.363l10.359-10.359l16.103-16.103
	l16.103-16.103l10.359-10.359L212.695,141.324z"/>
<g>
	<path style="fill:#2487FF;" d="M407.596,406.308l26.462-26.462L212.695,141.324c-1.262,7.257-3.459,14.382-6.582,21.186
		l217.586,227.696L407.596,406.308z"/>
	<path style="fill:#2487FF;" d="M142.611,211.407L381.134,432.77l10.359-10.359L163.796,204.826
		C156.993,207.948,149.868,210.146,142.611,211.407z"/>
</g>
<polygon style="fill:#59A4FF;" points="407.596,406.308 391.492,422.412 391.492,422.412 "/>
<rect x="233.449" y="214.722" transform="matrix(-0.7071 0.7071 -0.7071 -0.7071 591.9227 243.3867)" style="fill:#FFE577;" width="24.211" height="59.126"/>
<path style="fill:#898890;" d="M202.106,82.747c-3.625-6.159-8.076-11.966-13.366-17.255c-5.287-5.288-11.092-9.744-17.25-13.371
	C138.43,32.647,95.171,37.102,66.779,65.493c-28.391,28.391-32.846,71.651-13.37,104.711c3.627,6.158,8.082,11.962,13.371,17.25
	c5.289,5.289,11.097,9.74,17.255,13.366c17.867,10.518,38.708,14.045,58.576,10.589c16.894-2.938,33.083-10.907,46.129-23.954
	c13.047-13.046,21.015-29.236,23.954-46.129C216.151,121.456,212.624,100.614,202.106,82.747z"/>
<path style="fill:#77767E;" d="M188.74,65.493c-5.287-5.288-11.092-9.744-17.25-13.371L53.409,170.204
	c3.627,6.158,8.082,11.962,13.371,17.25c5.289,5.289,11.097,9.74,17.255,13.366l118.07-118.072
	C198.481,76.59,194.029,70.781,188.74,65.493z"/>
<g>
	<polygon style="fill:#D80029;" points="316.658,30.308 297.099,10.75 307.85,0 316.658,8.809 325.382,0.086 336.131,10.836 	"/>
	<polygon style="fill:#D80029;" points="475.206,214.459 455.648,194.902 466.398,184.151 475.206,192.961 483.929,184.237 
		494.679,194.986 	"/>
	<polygon style="fill:#D80029;" points="36.879,358.175 17.321,338.617 28.071,327.867 36.879,336.676 45.603,327.953 
		56.352,338.703 	"/>
	<polygon style="fill:#D80029;" points="307.434,512 287.875,492.443 298.625,481.692 307.434,490.502 316.156,481.778 
		326.906,492.527 	"/>
	<polygon style="fill:#D80029;" points="185.102,368.346 165.544,348.786 176.292,338.039 185.102,346.847 193.825,338.124 
		204.575,348.874 	"/>
</g>
<path d="M257.908,284.491l27.87-27.87l-52.556-52.556l-27.87,27.87L257.908,284.491z M264.279,256.622l-6.371,6.371l-31.057-31.058
	l6.371-6.371L264.279,256.622z"/>
<path d="M52.241,191.242l10.749,10.75l4.028-4.028c17.011,14.441,38.61,22.322,60.796,22.322c4.092,0,8.205-0.273,12.311-0.816
	l241.208,223.853l13.755-13.755l42.313,42.313l35.771-35.77l-42.314-42.314l13.754-13.754L220.754,138.833
	c3.485-26.364-4.382-52.965-21.489-73.114l4.014-4.014l-10.749-10.75l-4.021,4.021c-16.947-14.446-38.235-22.343-60.749-22.343
	c-25.065,0-48.631,9.762-66.355,27.486s-27.486,41.289-27.486,66.356c0,22.513,7.896,43.801,22.342,60.748L52.241,191.242z
	 M451.671,436.113l-14.272,14.271l-31.564-31.564l14.272-14.272L451.671,436.113z M423.505,379.651l-3.399,3.399l-35.771,35.77l0,0
	l-3.399,3.399l-19.583-18.175l43.977-43.977L423.505,379.651z M207.603,175.811c0.531-0.858,1.045-1.727,1.548-2.603
	c0.161-0.28,0.317-0.561,0.475-0.843c0.388-0.692,0.767-1.39,1.138-2.092c0.145-0.275,0.292-0.547,0.434-0.824
	c0.488-0.95,0.965-1.904,1.421-2.87c0.034-0.072,0.065-0.146,0.099-0.218c0.422-0.899,0.826-1.806,1.218-2.719
	c0.127-0.296,0.25-0.593,0.374-0.89c0.308-0.738,0.607-1.48,0.896-2.227c0.11-0.284,0.223-0.567,0.33-0.852
	c0.37-0.983,0.729-1.97,1.066-2.966l178.379,192.206l-44.78,44.779L157.996,215.313c0.996-0.337,1.982-0.696,2.964-1.065
	c0.288-0.108,0.573-0.222,0.859-0.332c0.745-0.289,1.486-0.587,2.223-0.895c0.296-0.124,0.592-0.246,0.887-0.373
	c0.919-0.395,1.833-0.803,2.738-1.227c0.065-0.03,0.132-0.059,0.197-0.089c0.969-0.457,1.928-0.935,2.88-1.426
	c0.27-0.139,0.536-0.282,0.805-0.424c0.709-0.374,1.415-0.757,2.114-1.15c0.276-0.154,0.551-0.308,0.826-0.465
	c0.888-0.51,1.77-1.032,2.64-1.571c0.042-0.025,0.084-0.05,0.126-0.075c0.911-0.567,1.809-1.152,2.701-1.751
	c0.256-0.172,0.51-0.349,0.764-0.523c0.662-0.454,1.319-0.916,1.97-1.386c0.256-0.185,0.513-0.37,0.768-0.557
	c0.846-0.625,1.685-1.262,2.511-1.916c0.019-0.016,0.041-0.03,0.06-0.047c0.844-0.67,1.675-1.361,2.498-2.062
	c0.241-0.206,0.479-0.416,0.72-0.623c0.608-0.528,1.209-1.065,1.805-1.61c0.236-0.216,0.473-0.431,0.707-0.649
	c0.795-0.742,1.582-1.495,2.354-2.267c0.771-0.771,1.523-1.559,2.265-2.353c0.22-0.236,0.436-0.474,0.654-0.711
	c0.543-0.594,1.079-1.195,1.606-1.801c0.209-0.24,0.42-0.48,0.626-0.723c0.7-0.822,1.39-1.652,2.059-2.495
	c0.02-0.026,0.04-0.053,0.061-0.079c0.65-0.82,1.28-1.652,1.9-2.491c0.192-0.259,0.379-0.521,0.568-0.781
	c0.466-0.645,0.924-1.294,1.373-1.95c0.178-0.26,0.358-0.519,0.534-0.781c0.596-0.888,1.18-1.784,1.744-2.691
	C207.538,175.92,207.569,175.865,207.603,175.811z M205.205,140.021c-0.696,4.003-1.69,7.914-2.969,11.709
	c-3.838,11.384-10.243,21.722-18.87,30.349c-11.502,11.503-26.045,19.054-42.058,21.841l-0.005,0.001
	c-22.717,3.949-45.924-2.276-63.508-16.733l110.68-110.68C202.932,94.093,209.158,117.305,205.205,140.021z M49.121,126.474
	c0-21.006,8.18-40.753,23.033-55.605c14.853-14.854,34.601-23.034,55.605-23.034c18.45,0,35.928,6.315,49.973,17.917L67.038,176.446
	C55.436,162.401,49.121,144.924,49.121,126.474z"/>
</svg>